<?xml version="1.0" standalone="no"?>
<!DOCTYPE svg PUBLIC "-//W3C//DTD SVG 1.1//EN" "http://www.w3.org/Graphics/SVG/1.1/DTD/svg11.dtd" >
<svg xmlns="http://www.w3.org/2000/svg">
<metadata>Generated by IcoMoon</metadata>
<defs>
<font id="SE_Pictograms" horiz-adv-x="1024">
<font-face units-per-em="1024" ascent="960" descent="-64" />
<missing-glyph horiz-adv-x="1024" />
<glyph unicode="&#x20;" d="" horiz-adv-x="512" />
<glyph unicode="&#xe600;" d="M527.584 146.24c-23.68 0-42.848 19.2-42.848 42.848v527.84c0 23.712 19.168 42.912 42.848 42.912s42.848-19.2 42.848-42.912v-527.84c0-23.648-19.168-42.848-42.848-42.848zM527.584 860c-224.416 0-406.976-182.592-406.976-406.976 0-224.416 182.56-406.976 406.976-406.976 224.416 0 406.976 182.56 406.976 406.976 0 224.384-182.56 406.976-406.976 406.976M527.584-39.68c-271.68 0-492.704 221.024-492.704 492.704s221.024 492.672 492.704 492.672c271.68 0 492.704-220.992 492.704-492.672 0-271.68-221.024-492.704-492.704-492.704z" />
<glyph unicode="&#xe601;" d="M507.552 859.968c-224.416 0-406.976-182.56-406.976-406.976 0-224.384 182.56-406.944 406.976-406.944 224.416 0 406.976 182.56 406.976 406.944 0 224.416-182.56 406.976-406.976 406.976M507.552-39.68c-271.68 0-492.704 221.024-492.704 492.672 0 271.712 221.024 492.704 492.704 492.704 271.68 0 492.704-220.992 492.704-492.704 0-271.616-221.024-492.672-492.704-492.672z" />
<glyph unicode="&#xe602;" d="M536.224-46.208c-26.048 0-47.136 21.12-47.136 47.136v905.152c0 26.048 21.088 47.168 47.136 47.168s47.136-21.152 47.136-47.168v-905.152c0-26.048-21.056-47.136-47.136-47.136z" />
<glyph unicode="&#xe603;" d="M512.768 416.832c-20.864 0-37.728 16.896-37.728 37.696v452.32c0 20.864 16.896 37.728 37.728 37.728s37.728-16.896 37.728-37.728v-452.32c0-20.832-16.896-37.696-37.728-37.696zM512.768-29.536c-234.336 0-424.992 190.624-424.992 424.992 0 146.368 73.888 280.608 197.664 359.104 17.6 11.168 40.96 5.952 52.096-11.648 11.168-17.6 5.952-40.96-11.648-52.096-101.824-64.576-162.624-175.040-162.624-295.36 0-192.704 156.768-349.472 349.472-349.472s349.44 156.768 349.44 349.472c0 120.352-60.8 230.784-162.624 295.36-17.6 11.136-22.816 34.496-11.68 52.096 11.168 17.6 34.496 22.816 52.096 11.648 123.776-78.496 197.696-212.736 197.696-359.104 0-234.336-190.624-424.992-424.96-424.992z" />
<glyph unicode="&#xe604;" d="M897.728 562.976l-634.336 362.624c-24.864 14.56-50.24 21.952-75.424 21.952-35.584 0-68.448-15.616-89.12-41.824-19.008-24-29.024-55.872-29.024-92.064v-180.8c0-20.256 16.512-36.768 36.768-36.768 20.192 0 36.576 16.512 36.576 36.768v180.8c0 19.552 4.544 35.552 13.12 46.368 7.36 8.992 18.688 14.144 31.104 14.144 12.352 0 25.632-4.128 39.488-12.192l634.784-362.752c22.592-12.704 35.744-29.856 36-47.008-0.256-17.568-13.536-34.88-36.448-47.776l-634.24-362.496c-13.792-7.744-27.36-11.808-39.232-11.808-13.024 0-23.872 4.8-31.392 13.952-8.672 10.624-13.216 26.624-13.216 46.24v197.952c0 20.16-16.384 36.576-36.576 36.576-20.256 0-36.768-16.384-36.768-36.576v-197.952c0-36.512 10.080-68.256 29.152-91.744 21.024-26.4 54.208-42.080 88.8-42.080 24.544 0 49.92 7.328 75.52 21.76l634.4 362.56c46.24 26.208 72.928 66.816 73.312 111.36-0.384 44.576-27.072 84.992-73.216 110.784z" />
<glyph unicode="&#xe605;" d="M495.936 127.296c-10.304 0-20.64 2.016-30.304 7.2-15.232 8.224-33.44 27.104-33.44 70.24v106.336l-301.408-174.272c-1.312-0.768-2.656-1.408-4.064-1.952-4.992-1.888-49.44-17.92-81.44 4.096-12.448 8.576-27.296 25.888-27.296 59.552v147.072c0 15.584 12.64 28.256 28.256 28.256s28.256-12.672 28.256-28.256v-147.072c0-8.704 1.856-12.288 2.848-12.992 4.224-2.944 17.856-1.6 27.488 1.504l341.504 197.472c8.736 5.088 19.52 5.088 28.256 0 8.768-5.056 14.144-14.368 14.144-24.48v-155.328c0-16.352 3.776-20.48 3.808-20.544 5.344-2.912 27.456 4.448 42.144 14.144 0.512 0.352 1.056 0.672 1.632 0.992l383.936 217.408c0.288 0.192 0.512 0.32 0.8 0.48 14.176 7.552 34.048 24.384 34.048 34.592 0 9.28-18.88 27.552-35.168 37.056-2.912 1.664-308.576 176.512-383.584 218.656-20.64 11.616-32.992 12.736-37.312 10.112-7.104-4.256-10.496-23.008-10.336-31.904 0-0.16 0-0.352 0-0.512v-149.12c0-10.112-5.408-19.456-14.144-24.48-8.768-5.056-19.552-5.024-28.288 0.032l-341.408 198.016c-9.504 3.072-23.232 4.448-27.456 1.504-0.992-0.672-2.848-4.288-2.848-12.992v-147.008c0-15.616-12.64-28.256-28.256-28.256s-28.256 12.64-28.256 28.256v147.008c0 33.696 14.848 50.976 27.296 59.552 32 22.048 76.48 6.016 81.44 4.128 1.408-0.544 2.784-1.216 4.096-1.952l301.312-174.752v99.872c-0.096 7.2 0.64 58.912 37.888 81.152 24.864 14.848 56.48 11.712 93.984-9.376 75.136-42.24 381.056-217.184 384.128-218.976 10.688-6.176 63.392-39.040 63.392-85.984 0-48.48-55.424-79.904-63.872-84.384l-382.848-216.832c-8.704-5.6-38.496-23.264-68.928-23.264z" />
<glyph unicode="&#xe606;" d="M1010.336 450.816c0 7.776-1.504 15.168-3.936 22.144v269.248c0 15.552-12.64 28.192-28.192 28.192-15.584 0-28.192-12.64-28.192-28.192v-207.264c-1.184 0.704-2.176 1.312-2.976 1.76-3.040 1.792-308.448 176.448-383.488 218.624-37.408 21.024-68.992 24.192-93.824 9.344-37.152-22.208-37.888-73.696-37.792-80.992v-99.712l-302.784 175.616-2.112 0.8c-4.96 1.888-49.376 17.888-81.312-4.128-12.416-8.544-27.264-25.824-27.264-59.392v-146.816c0-15.584 12.608-28.192 28.192-28.192 15.552 0 28.192 12.608 28.192 28.192v146.816c0 8.704 1.856 12.288 2.816 12.96 4.256 2.976 17.92 1.568 27.424-1.504l383.2-222.272v198.368c-0.16 8.864 3.232 27.616 10.336 31.872 4.32 2.56 16.64 1.472 37.248-10.112 74.848-42.080 380.064-216.64 383.040-218.336 11.488-6.624 24.64-18.144 31.072-27.552v-18.912c-6.496-9.184-19.776-19.52-30.080-25.056l-385.728-218.528c-14.656-9.664-36.736-17.024-42.080-14.112-0.032 0-3.84 4.16-3.84 20.48v203.936l-383.296-221.696c-8.544-2.752-22.88-4.576-27.392-1.472-0.992 0.672-2.848 4.256-2.848 12.992v146.848c0 15.552-12.608 28.192-28.192 28.192s-28.192-12.64-28.192-28.192v-146.848c0-33.632 14.816-50.848 27.296-59.424 31.936-21.984 76.352-5.984 81.28-4.128l2.112 0.8 302.848 175.136v-106.144c0-43.104 18.144-61.888 33.408-70.112 9.6-5.184 19.968-7.2 30.24-7.2 30.4 0 60.16 17.632 68.832 23.264l382.24 216.448c0.768 0.416 1.92 1.056 3.392 1.888v-212.256c0-15.584 12.608-28.192 28.192-28.192 15.552 0 28.192 12.608 28.192 28.192v272.416c2.432 6.912 3.936 14.304 3.936 22.144z" />
<glyph unicode="&#xe607;" d="M627.104 604.064c-19.36-10.048-53.216-10.88-89.12-10.88-5.664 0-11.424 0-17.312 0.064-6.208 0-12.576 0.064-18.976 0.064h-128.608v131.744h132.352c111.776 0 144.096-14.592 144.096-64.928 0-44.384-15.168-52.288-22.464-56.032M713.728 660.096c0 54.112-25.376 92.896-73.312 112.096-39.104 15.68-90.176 16.992-134.944 17.024h-164.448c-17.728 0-32.096-14.368-32.096-32.064v-195.936c0-17.728 14.368-32.064 32.096-32.064h160.672c6.336 0 12.576 0 18.72-0.064 5.984 0 11.84-0.064 17.6-0.064 45.824 0 86.4 1.344 118.624 18.048 38.432 19.936 57.12 56.896 57.12 113.024zM865.664 52.736c-1.28-5.056-4.384-12.608-16.8-19.904-0.32-0.192-0.608-0.384-0.928-0.608-26.752-16.896-39.808-20.448-46.080-20.448-7.712 0-17.216 9.312-36.352 35.648-35.584 48.992-230.368 328-245.696 349.92-8.384 14.208-28.192 29.44-59.68 29.44h-118.944c-17.728 0-32.064-14.368-32.064-32.032v-314.56c0-11.776 0-42.976-6.336-50.368-1.888-2.24-10.176-7.392-45.92-7.392-45.76 0-54.176 5.376-55.68 7.008-4.864 5.344-4.864 36.032-4.864 50.784v741.504c0 43.68 0 69.984 70.624 69.984h293.632c95.808 0 164.608-21.664 204.448-64.32 40.992-43.904 60.896-94.112 60.896-153.44 0-116.608-59.36-181.856-198.464-218.112-15.616-4.064-25.76-19.072-23.744-35.072 2.080-15.968 15.68-27.968 31.808-27.968 24.544 0 59.776-41.824 75.776-70.048 0.32-0.544 0.608-1.056 0.96-1.568l144.064-224.48c3.2-5.312 13.6-27.104 9.408-44M910.656 130.656c-0.064 0.16-0.192 0.288-0.256 0.448l-143.776 224.032c-4.352 7.616-22.4 37.728-49.472 63.2 46.176 19.36 82.432 43.872 109.728 74.016 42.464 46.848 63.104 106.304 63.104 181.696 0 75.264-26.272 141.568-78.112 197.152-52.448 56.224-136.992 84.704-251.328 84.704h-293.632c-56.288 0-94.080-15.616-115.552-47.776-19.168-28.64-19.168-63.392-19.168-86.336v-741.536c0-36.128 0-70.24 21.568-93.92 21.28-23.392 53.92-27.968 103.072-27.968 35.936 0 72.256 3.648 94.688 29.856 20.032 23.456 21.696 56.928 21.696 92.032v282.464h86.912c3.328 0 5.28-0.448 6.272-0.768 9.728-13.952 210.144-301.088 247.264-352.16 20.064-27.68 45.088-62.080 88.224-62.080 22.496 0 46.4 9.024 79.872 30.112 24.064 14.24 40.032 34.784 46.144 59.488 11.296 45.472-14.272 88.576-17.216 93.344z" />
<glyph unicode="&#xe608;" d="M476.608 34.976c11.424-12.16 25.408-17.824 44-17.824 18.208 0 31.808 5.504 42.816 17.184 11.392 12.64 17.184 34.208 17.184 64.064v666.688c0 17.696 14.336 32 32.064 32h202.816c23.168 0 40.48 4.384 50.176 12.672 8.928 8.096 12.928 17.856 12.928 31.648 0 13.888-4.064 23.744-13.12 31.872-0.064 0.064-0.192 0.16-0.288 0.224-9.152 8.416-26.336 12.864-49.696 12.864h-590.976c-22.432 0-39.008-4.352-49.28-12.96-5.888-5.152-12.576-13.472-12.576-32 0-13.984 3.904-23.872 12.608-31.936 9.216-8.096 26.24-12.416 49.248-12.416h202.816c17.728 0 32.064-14.336 32.064-32v-666.72c0-29.472 5.792-50.784 17.184-63.392M520.672-46.976v0c-36.672 0-67.328 12.896-91.072 38.368-0.064 0.064-0.16 0.192-0.224 0.256-22.592 24.8-34.048 60.704-34.048 106.752v634.624h-170.784c-39.68 0-70.656 9.696-92.096 28.8-0.096 0.096-0.192 0.192-0.32 0.32-21.952 20.128-33.536 47.552-33.536 79.328 0 32.928 12.032 60.768 34.816 80.576 0.096 0.064 0.192 0.192 0.32 0.256 22.144 18.752 52.704 28.224 90.816 28.224h590.976c40.16 0 71.424-9.952 92.896-29.568 22.432-20.192 34.304-47.648 34.336-79.456 0-31.904-11.904-59.456-34.464-79.616-0.128-0.096-0.224-0.224-0.352-0.352-21.792-18.88-52.864-28.512-92.384-28.512h-170.784v-634.624c0-46.464-11.456-82.592-34.016-107.36-0.096-0.096-0.192-0.192-0.256-0.288-23.328-25.024-53.536-37.728-89.792-37.728z" />
<glyph unicode="&#xe609;" d="M146.4 407.584h0.224c15.104 0.096 27.264 12.448 27.104 27.552-0.544 71.488-22.56 95.072-68.352 136.128-29.344 34.752-45.472 78.944-45.472 124.576 0 106.080 86.272 192.352 192.352 192.352 57.76 0 111.936-25.632 148.672-70.272 9.6-11.68 26.816-13.376 38.496-3.744 11.68 9.6 13.344 26.816 3.744 38.464-47.136 57.376-116.736 90.24-190.912 90.24-136.224 0-247.040-110.816-247.040-247.040 0-59.264 21.248-116.64 59.84-161.504 0.768-0.896 1.6-1.76 2.496-2.528 40.288-36.128 51.104-45.824 51.52-97.056 0.096-15.008 12.32-27.104 27.328-27.104zM392.576 520.192c-12.832 7.968-29.696 4.064-37.696-8.768-26.56-42.624-32-80.448-32-124.128v-12.352h-137.28c-7.616 0.576-28.928 0.48-46.88-15.136-15.84-13.792-23.904-34.528-23.904-61.632 0-30.688 12.544-47.936 23.104-57.024 19.744-17.024 44.544-16.48 52.832-15.712h120.8c0.48 0 0.928 0 1.408 0.032 0.032 0 3.872-0.576 6.592-3.168 4.256-4 6.56-12.736 6.56-24.544 0-5.536-0.768-12.832-4.48-16.288-3.52-3.264-10.4-4.032-13.472-3.872-1.088 0.128-1.408 0.096-2.592 0.096h-143.52c-13.376 0-24.8-9.696-26.976-22.912-0.96-5.76-8.416-57.216 20.256-91.008 10.4-12.256 29.728-26.88 62.816-26.88 20.512 0 35.584 0.192 44.768 0.512 4.288 0.16 7.36 0.352 9.664 0.576 19.904 2.112 25.984 17.504 26.4 26.272 0.64 12.64-7.52 27.168-26.912 29.12-4.064 0.416-8.032-0.096-11.68-1.344-6.368-0.224-18.688-0.448-42.24-0.448-13.12 0-18.304 4.256-21.056 7.488-5.12 5.92-7.456 15.072-8.384 23.872h115.872c7.52-0.48 33.376-0.48 53.568 17.76 10.336 9.312 22.688 26.752 22.688 56.992 0 27.744-7.936 49.344-23.584 64.192-18.176 17.248-40.032 18.272-45.856 18.176h-122.112c-1.312 0-2.688-0.096-4.032-0.288-0.736-0.096-8.192-0.256-11.648 2.752-2.592 2.24-4.096 7.904-4.096 15.584 0 14.528 3.744 19.136 4.928 20.224 2.048 1.92 5.472 2.080 6.56 2.048 1.408-0.256 1.696-0.192 3.392-0.192h165.824c15.104 0 27.328 12.256 27.328 27.328v39.712c0 42.208 6.208 67.136 23.744 95.232 8 12.832 4.128 29.696-8.704 37.696zM944.864 633.152c-8.256-7.072-23.040-10.816-42.816-10.816h-200.384v-538.752c0-25.472-4.96-43.84-14.688-54.624-9.408-10.016-20.992-14.688-36.512-14.688-15.872 0-27.84 4.832-37.568 15.232-9.696 10.752-14.656 28.96-14.656 54.112v538.752h-200.384c-19.616 0-34.144 3.648-42.016 10.592-7.424 6.912-10.752 15.328-10.752 27.264 0 15.808 5.696 22.912 10.752 27.296 8.768 7.328 22.912 11.040 42.016 11.040h504.192c19.936 0 34.624-3.776 42.4-10.976l0.256-0.192c7.744-6.944 11.2-15.328 11.2-27.168 0-11.808-3.424-20.096-11.040-27.040M981.312 727.936c-18.336 16.768-44.992 25.248-79.264 25.248h-504.192c-32.512 0-58.592-8.128-77.504-24.096l-0.256-0.256c-19.424-16.864-29.696-40.608-29.696-68.704 0-27.104 9.888-50.496 28.608-67.68l0.288-0.288c18.272-16.288 44.672-24.544 78.56-24.544h145.728v-484.064c0-39.296 9.76-69.92 29.056-91.040l0.224-0.256c20.256-21.696 46.4-32.768 77.664-32.768v0c30.912 0 56.672 10.848 76.608 32.224l0.256 0.256c19.264 21.152 29.024 51.968 29.024 91.584v484.064h145.728c33.696 0 60.256 8.192 78.816 24.32l0.32 0.288c19.232 17.184 29.408 40.704 29.408 67.904-0.032 27.136-10.176 50.56-29.312 67.776z" />
<glyph unicode="&#xe60a;" d="M387.136 508.896c-13.632 0-24.704-11.040-24.704-24.704v-317.472c0-17.664-10.752-29.984-20.48-29.984h-28.448c-13.632 0-24.672-11.104-24.64-24.736 0-13.632 11.040-24.64 24.704-24.64h28.416c38.496 0 69.792 35.616 69.792 79.36v317.472c0 13.632-11.040 24.704-24.672 24.704zM929.568 613.408c-8.256-7.072-23.072-10.816-42.816-10.816h-200.416v-522.336c0-25.472-4.928-43.84-14.656-54.624-9.408-10.016-20.992-14.688-36.544-14.688-15.872 0-27.808 4.832-37.536 15.264-9.728 10.72-14.656 28.96-14.656 54.112v522.336h-200.416c-19.616 0-34.144 3.68-42.016 10.56-7.456 6.912-10.752 15.328-10.752 27.264 0 15.808 5.728 22.912 10.72 27.328 8.8 7.328 22.912 11.008 42.048 11.008h504.224c19.904 0 34.56-3.744 42.4-10.912l0.256-0.224c7.744-6.944 11.168-15.328 11.2-27.168 0-11.744-3.424-20.096-11.040-27.008M966.048 708.224c-18.336 16.736-44.992 25.248-79.264 25.248h-504.256c-32.512 0-58.592-8.096-77.504-24.096l-0.256-0.224c-19.424-16.896-29.728-40.64-29.728-68.736 0-27.104 9.888-50.496 28.608-67.68l0.32-0.256c18.272-16.288 44.672-24.544 78.56-24.544h145.728v-467.68c0-39.296 9.76-69.92 29.056-91.040l0.192-0.256c20.256-21.728 46.4-32.736 77.696-32.736v0c30.912 0 56.672 10.88 76.64 32.192l0.224 0.256c19.264 21.152 29.024 51.968 29.024 91.584v467.68h145.728c33.696 0 60.224 8.192 78.784 24.32l0.32 0.288c19.232 17.216 29.408 40.704 29.408 67.904-0.064 27.136-10.176 50.592-29.312 67.776zM306.528 843.328h35.488c9.664 0 20.448-12.32 20.448-29.984v-13.536c0-13.632 11.040-24.704 24.704-24.704 13.632 0 24.672 11.040 24.672 24.704v13.536c0 43.744-31.328 79.36-69.792 79.36h-14.464c-9.28 31.392-35.136 53.536-66.016 53.536h-76.832c-30.848 0-56.672-22.144-65.984-53.536h-15.232c-38.496 0-69.824-35.616-69.824-79.36v-646.624c0-43.744 31.328-79.328 69.824-79.328l43.68 0.032c13.632 0 24.704 11.072 24.672 24.704 0 13.632-11.040 24.672-24.704 24.672l-43.648-0.032c-9.664 0-20.48 12.32-20.48 29.952v646.656c0 17.696 10.752 29.984 20.48 29.984h36.224c13.472 0 24.448 10.784 24.704 24.256 0.288 15.872 9.6 29.248 20.32 29.248h76.832c10.752 0 20.064-13.408 20.32-29.248 0.192-13.472 11.168-24.256 24.672-24.256z" />
<glyph unicode="&#xe60b;" d="M835.808 351.36c-15.232 0-27.616 12.352-27.616 27.616v292.832c-0.128 1.088-0.224 2.176-0.224 3.296-0.192 14.656-12.224 26.56-26.848 26.56-14.592 0-26.592-11.872-26.848-26.464 0-59.008 0-170.752 0-174.848 0.032-0.096 0.032-0.16 0.032-0.256 0-15.232-12.384-27.584-27.584-27.584-11.104 0-27.584 7.872-27.616 29.568l-0.032 173.344c0 0.096 0 0.224 0 0.32 0.544 44.768 37.376 81.152 82.080 81.152 43.296 0 79.168-34.080 81.888-76.8 0.288-1.504 0.416-3.072 0.416-4.672v-296.416c-0.032-15.264-12.448-27.616-27.648-27.616zM725.984 472.512c-15.232 0-27.616 12.384-27.616 27.616v270.112c-0.128 1.056-0.192 2.144-0.224 3.232-0.16 14.656-12.224 26.592-26.848 26.592-14.592 0-26.624-11.872-26.88-26.464l0.032-273.472c0-15.232-12.384-27.616-27.616-27.616s-27.584 12.384-27.584 27.616l-0.032 273.664v0.32c0.544 44.768 37.376 81.184 82.112 81.184 43.296 0 79.168-34.112 81.888-76.864 0.256-1.504 0.416-3.040 0.416-4.608v-273.664c-0.032-15.264-12.448-27.616-27.648-27.616zM616.8 494.24c-15.232 0-27.584 12.352-27.584 27.616v326.688c-0.128 1.088-0.224 2.176-0.224 3.264-0.192 14.656-12.224 26.56-26.848 26.56-14.592 0-26.624-11.872-26.88-26.464 0-9.632 0-323.232 0.032-329.856 0-0.064 0-0.16 0-0.224 0-15.264-12.384-27.616-27.616-27.616-13.376 0-27.584 9.984-27.616 28.512l-0.032 329.376c0 0.096 0 0.224 0 0.32 0.544 44.736 37.408 81.152 82.112 81.152 43.232 0 79.104-34.048 81.888-76.768 0.256-1.504 0.384-3.136 0.384-4.672v-330.272c0-15.296-12.384-27.648-27.648-27.648zM398.528 472.48c-1.12 0-27.552 0.384-27.584 30.656v270.656c0 0.096 0 0.224 0 0.32 0.512 44.768 37.344 81.152 82.080 81.152 43.296 0 79.136-34.048 81.888-76.8 0.256-1.504 0.416-3.072 0.416-4.672v-273.664c0-15.232-12.384-27.616-27.616-27.616s-27.584 12.384-27.584 27.616v270.080c-0.16 1.056-0.256 2.176-0.256 3.296-0.16 14.624-12.192 26.528-26.848 26.528-14.592 0-26.624-11.872-26.88-26.464 0-8.608 0-267.168 0.032-273.312v-0.192c-0.032-15.232-12.384-27.584-27.648-27.584zM421.696-31.136c-15.264 0-27.616 12.384-27.616 27.616v113.568l-191.648 238.592c-16.576 20.576 1.184 44.032 6.976 51.744l0.608 0.832c10.912 15.136 28.384 27.136 47.968 32.832 17.984 5.248 36.736 6.816 52.768 4.448 22.528-3.328 41.44-12.288 54.72-25.888 6.56-6.72 11.936-13.92 16.672-20.288l1.824-2.432c4-5.312 8.192-10.496 12.64-15.968l3.2-3.936c3.392-4.16 6.816-8.384 10.176-12.608l3.104-3.84c9.536-11.904 7.616-29.28-4.288-38.784-11.872-9.536-29.248-7.616-38.784 4.288l-3.072 3.872c-3.264 4.064-6.624 8.192-9.952 12.32l-3.136 3.872c-4.608 5.696-9.376 11.552-14.016 17.728l-1.888 2.528c-4.064 5.44-7.904 10.592-11.872 14.656-4.736 4.864-13.056 8.384-23.424 9.92-8.064 1.216-18.976 0.128-29.184-2.88-7.040-2.048-13.6-6.080-17.6-10.752l187.328-233.184c3.936-4.928 6.080-11.008 6.080-17.28v-123.296c0-15.232-12.384-27.616-27.616-27.616zM725.344-31.136c-15.264 0-27.616 12.384-27.616 27.616v122.816c0 19.424 16.8 25.792 23.968 28.512 3.712 1.44 8.48 3.136 12.576 4.64 3.008 1.056 5.6 2.016 7.008 2.528 8.672 4.096 16.448 9.056 23.232 14.72 18.080 15.136 30.368 37.12 36.544 65.44 4.576 20.896 7.040 41.472 7.168 59.52 0.096 18.24 0.064 36.864 0.032 54.88 0 9.792-0.032 19.616-0.032 29.408 0 15.232 12.384 27.616 27.584 27.616 15.232-0.032 27.616-12.384 27.584-27.648 0-9.76 0.032-19.52 0.032-29.28 0.032-18.112 0.064-36.864-0.032-55.328-0.128-21.856-3.040-46.368-8.416-70.976-8.704-39.968-27.776-73.184-55.072-96-10.56-8.832-22.592-16.448-35.744-22.624-1.888-0.896-4.032-1.664-11.168-4.224-0.032-0.032-0.032-0.032-0.064-0.032v-104c0-15.232-12.384-27.616-27.584-27.616z" />
<glyph unicode="&#xe60c;" d="M980.896 678.784c-12.512 3.488-25.792-1.856-32.48-12.992 0 0-69.44-115.68-83.328-138.848h-100.384c-15.936 0-28.896-12.928-28.896-28.896v-222.4c0-15.936 12.96-28.864 28.896-28.864h46.24c-4.096-25.696-12.544-64.096-29.536-102.048-36.512-81.504-94.848-122.816-173.28-122.816-70.048 0-125.504 38.368-164.832 114.016-18.304 35.296-28.928 71.104-34.624 94.912 45.984 12.416 97.504 54.272 130.4 166.88 18.336 62.816 24.288 124.704 25.952 147.872 32.32 41.44 162.752 213.664 162.752 298.048 0 37.216-16.544 58.944-30.464 70.656-40 33.664-102.912 23.904-109.952 22.72-15.648-2.752-26.112-17.632-23.456-33.312 2.688-15.68 17.568-26.24 33.28-23.616 11.104 1.856 46.496 3.968 63.008-10.016 4.192-3.584 9.824-10.176 9.824-26.368 0-53.344-95.616-193.472-155.904-269.28-3.712-4.768-5.92-10.592-6.24-16.64-0.128-2.752-16.128-273.632-133.248-273.632-115.84 0-119.36 269.568-119.392 272.288 0 6.528-2.208 12.896-6.272 17.984-60.288 75.776-155.872 215.904-155.872 269.28 0 16.192 5.6 22.784 9.824 26.368 16.544 13.984 51.936 11.872 63.008 10.016 15.68-2.624 30.592 7.936 33.28 23.648 2.688 15.68-7.808 30.592-23.488 33.312-7.040 1.216-69.92 10.976-109.952-22.72-13.888-11.68-30.464-33.408-30.464-70.656 0-84.064 129.28-255.104 162.336-297.472 0.64-23.712 3.84-84.992 19.2-147.264 29.824-121.152 84.864-160.992 133.024-170.208 5.568-26.208 17.728-71.872 41.408-117.92 49.312-95.936 124.288-146.656 216.864-146.656 102.368 0 180.736 54.816 226.688 158.496 33.088 74.656 37.344 148.352 37.504 151.488 0.416 7.904-2.432 15.648-7.872 21.408-5.44 5.76-13.056 8.96-20.96 8.96h-49.888v164.608h87.872c10.144 0 19.552 5.312 24.768 14.016 0 0 19.616 32.672 38.080 63.456v-386.816c0-15.936 12.96-28.864 28.896-28.864s28.864 12.928 28.864 28.864v491.168c-0.064 12.992-8.704 24.352-21.216 27.84z" />
<glyph unicode="&#xe60d;" d="M877.632-48.64c-36.768 0-72.576 15.328-98.272 41.952l-309.312 309.344c-12.256 12.224-12.256 32.096 0 44.352 12.256 12.224 32.096 12.224 44.384 0l309.504-309.504c0.16-0.16 0.32-0.32 0.448-0.512 14.176-14.752 33.088-22.848 53.28-22.848 40.48 0 73.376 32.928 73.376 73.344 0 20.192-8 38.976-22.592 52.96-0.16 0.16-0.32 0.32-0.48 0.48l-402.368 402.336c-8.864 8.832-11.584 22.048-7.040 33.664 10.080 25.632 15.232 53.92 15.232 84 0 125.888-102.432 228.352-228.32 228.352-9.824 0-21.056-0.928-32.672-2.592l115.904-116.576c0.224-0.224 0.48-0.448 0.672-0.704 23.584-25.28 36.544-58.208 36.544-92.8 0-35.616-13.76-69.408-38.784-95.2-25.92-26.464-61.6-41.6-97.984-41.6-34.592 0-67.584 12.992-92.864 36.576-0.192 0.192-0.384 0.352-0.576 0.544l-116.64 114.528c-1.312-10.048-2.016-20.192-2.016-30.432 0-125.856 102.432-228.32 228.352-228.32 26.944 0 53.28 4.64 78.272 13.76 14.272 7.552 32.16 3.008 41.056-10.816 9.344-14.592 5.088-34.016-9.472-43.328l-1.024-0.64c-1.792-1.184-3.744-2.144-5.792-2.944-32.896-12.448-67.52-18.752-103.008-18.752-160.512 0-291.072 130.56-291.072 291.040 0 35.136 6.176 69.44 18.4 102.048 3.712 9.952 12.256 17.344 22.624 19.616 10.336 2.304 21.216-0.8 28.768-8.256l155.264-152.416c13.6-12.544 31.232-19.456 49.76-19.456 19.616 0 38.944 8.256 53.024 22.656 13.536 13.952 21.024 32.16 21.024 51.392 0 18.496-6.912 36.096-19.424 49.696l-155.104 156c-7.648 7.712-10.816 18.752-8.288 29.312 2.496 10.528 10.208 19.040 20.448 22.528 32.096 10.848 73.12 17.888 104.608 17.888 160.48 0 291.072-130.56 291.072-291.072 0-30.56-4.256-59.808-12.672-87.264l388.256-388.224c26.848-25.888 41.632-60.672 41.632-97.984-0.064-75.072-61.12-136.128-136.192-136.128z" />
<glyph unicode="&#xe60e;" d="M953.216 34.752h-867.2v839.424h77.888v-38.752c0-163.552 76.608-290.816 221.44-368.096 77.44-41.312 154.112-57.568 192.416-63.584v-166.304c0-15.232 12.128-27.584 27.104-27.584h263.872c14.976 0 27.136 12.384 27.136 27.584 0 15.232-12.128 27.584-27.136 27.584h-236.736v163.040c0 14.4-10.848 26.368-24.928 27.52-0.992 0.096-99.072 8.64-196.48 60.64-127.68 68.096-192.416 175.488-192.416 319.232v66.368c0 15.232-12.128 27.584-27.136 27.584h-132.128c-15.008 0-27.136-12.352-27.136-27.584v-894.624c0-15.232 12.128-27.616 27.136-27.616h894.304c14.976 0 27.136 12.352 27.136 27.616s-12.16 27.584-27.136 27.584z" />
<glyph unicode="&#xe60f;" d="M911.936 506.016h-361.696v361.696c0 29.888-24.256 54.144-54.176 54.144s-54.176-24.224-54.176-54.144v-361.696h-361.696c-29.856 0-54.176-24.224-54.176-54.176 0-29.888 24.256-54.144 54.176-54.144h361.696v-361.696c0-29.856 24.224-54.176 54.176-54.176 29.888 0 54.176 24.256 54.176 54.176v361.696h361.696c29.856 0 54.144 24.224 54.144 54.144 0 29.92-24.256 54.176-54.144 54.176z" />
<glyph unicode="&#xe610;" d="M953.6 388.832h-848.064c-30.496 0-55.232 28.352-55.232 63.328s24.704 63.328 55.232 63.328h848.064c30.496 0 55.232-28.352 55.232-63.328s-24.704-63.328-55.232-63.328z" />
<glyph unicode="&#xe611;" d="M392.352 424.896v83.904c0 29.248-23.648 53.056-52.8 53.408l-103.392 3.904v340.768c0 15.232-12.384 27.648-27.616 27.648-15.296 0-27.648-12.384-27.648-27.648v-367.36c0-14.848 11.744-27.040 26.592-27.584l129.568-4.896v-80.288h-257.12v80.224h26.4c15.232 0 27.616 12.384 27.616 27.648 0 15.232-12.384 27.616-27.616 27.616h-28.224c-29.408 0-53.408-23.968-53.408-53.408v-83.904c0-29.44 23.968-53.408 53.408-53.408h102.752v-378.368c0-15.296 12.384-27.648 27.648-27.648 15.232 0 27.616 12.384 27.616 27.648v378.336h102.752c29.472 0 53.44 23.968 53.44 53.408zM655.2 352.672l-103.168 2.432v551.744c0 15.232-12.384 27.616-27.584 27.616-15.296 0-27.648-12.384-27.648-27.616v-578.72c0-15.008 11.968-27.264 26.976-27.616l129.216-3.072v-80.256h-257.12v80.224h26.368c15.232 0 27.584 12.384 27.584 27.648 0 15.232-12.384 27.616-27.584 27.616h-28.224c-29.408 0-53.408-23.968-53.408-53.408v-83.904c0-29.44 23.968-53.408 53.408-53.408h102.752v-168.832c0-15.232 12.384-27.616 27.648-27.616 15.232 0 27.584 12.384 27.584 27.616v168.832h102.784c29.44 0 53.408 23.968 53.408 53.408v83.904c0.032 29.312-23.744 53.184-52.992 53.408zM941.472 734.464h-104.128l1.376 172.16c0.096 15.264-12.16 27.712-27.424 27.84h-0.224c-15.168 0-27.488-12.224-27.616-27.424l-1.568-200.032c-0.032-7.36 2.848-14.432 8-19.68 5.184-5.184 12.256-8.16 19.616-8.16h130.144v-80.224h-257.152v80.224h26.368c15.264 0 27.648 12.384 27.648 27.616 0 15.296-12.384 27.648-27.648 27.648h-28.192c-29.44 0-53.408-23.968-53.408-53.408v-83.904c0-29.472 23.968-53.408 53.408-53.408h102.752v-550.656c0-15.232 12.384-27.616 27.616-27.616 15.264 0 27.648 12.384 27.648 27.616v550.688h102.752c29.44 0 53.408 23.968 53.408 53.408v83.904c0.032 29.44-23.904 53.408-53.344 53.408z" />
<glyph unicode="&#xe612;" d="M308.896 104.096c3.648-14.912 2.56-30.208-2.976-44.224-22.336-2.592-66.72-7.744-110.816-12.832-14.208 45.408-49.6 80.832-94.976 95.040 5.088 44.064 10.24 88.448 12.832 110.816 13.984 5.472 29.312 6.56 44.192 2.912 19.072-4.672 35.168-16.48 45.344-33.312 6.688-11.040 10.272-23.008 10.656-35.52 0.032-0.192 0.032-0.384 0.032-0.544 0.032-0.384 0.032-0.8 0.096-1.216 0-0.128 0.032-0.256 0.032-0.448 0.032-0.384 0.096-0.768 0.128-1.12 0.064-0.384 0.128-0.736 0.192-1.088 0.032-0.16 0.064-0.32 0.096-0.448 0.096-0.384 0.16-0.8 0.288-1.184 0.064-0.32 0.16-0.64 0.256-0.992 0.032-0.16 0.096-0.32 0.16-0.48 0.096-0.384 0.256-0.768 0.384-1.152 0.096-0.288 0.224-0.544 0.32-0.832 0.096-0.192 0.192-0.384 0.256-0.544 0.16-0.384 0.32-0.736 0.48-1.088 0.128-0.256 0.256-0.512 0.416-0.768 0.096-0.224 0.224-0.416 0.32-0.608 0.192-0.32 0.384-0.64 0.544-0.992 0.128-0.224 0.288-0.48 0.448-0.704 0.16-0.192 0.32-0.384 0.448-0.608 0.192-0.288 0.384-0.576 0.576-0.832 0.192-0.256 0.384-0.48 0.544-0.704 0.16-0.224 0.352-0.448 0.544-0.608 0.192-0.256 0.384-0.48 0.576-0.704 0.256-0.256 0.48-0.48 0.672-0.736 0.096-0.096 0.192-0.192 0.288-0.288 0.096-0.096 0.224-0.192 0.32-0.288 0.192-0.192 0.384-0.352 0.576-0.544 0.256-0.224 0.544-0.48 0.8-0.672 0.224-0.192 0.48-0.384 0.704-0.608 0.16-0.128 0.32-0.256 0.48-0.384 0.288-0.224 0.544-0.448 0.864-0.608s0.544-0.384 0.864-0.608c0.16-0.096 0.32-0.192 0.48-0.256 0.32-0.192 0.576-0.384 0.928-0.544 0.32-0.192 0.608-0.384 0.992-0.544 0.096-0.064 0.256-0.096 0.384-0.192 0.032-0.032 0.064-0.032 0.064-0.032 0.352-0.192 0.64-0.288 0.96-0.48 0.352-0.128 0.672-0.32 1.056-0.448 0.128-0.032 0.256-0.064 0.32-0.096 0.096-0.032 0.16-0.032 0.224-0.064 0.288-0.096 0.608-0.224 0.896-0.32 0.384-0.128 0.768-0.256 1.12-0.352 0.128-0.032 0.256-0.064 0.384-0.096 0.096-0.032 0.192-0.032 0.256-0.064 0.288-0.064 0.544-0.16 0.864-0.192 0.384-0.096 0.768-0.192 1.184-0.256 0.128-0.032 0.256-0.032 0.384-0.064 0.128-0.032 0.256-0.032 0.384-0.032 0.256-0.032 0.48-0.096 0.704-0.096 0.448-0.032 0.864-0.096 1.312-0.128 0.096 0 0.192 0 0.32-0.032 0.192 0 0.416-0.032 0.544-0.032 0.096 0 0.256-0.032 0.352-0.032 12.544-0.416 24.896-4.064 35.712-10.688 16.64-10.176 28.512-26.272 33.152-45.344M724.224 868.8c19.040 2.944 74.4 7.008 126.528-32.032l-595.584-595.616c-1.664 3.328-3.424 6.688-5.408 9.952-17.824 29.408-46.048 50.112-79.424 58.304-1.504 0.384-3.008 0.672-4.48 0.992 152.576 152.64 548.864 548.928 558.336 558.4M909.376 858.848c-90.176 90.176-200.832 63.392-205.472 62.208-4.8-1.216-9.216-3.712-12.736-7.232l-623.424-623.424c-0.16-0.16-0.288-0.32-0.448-0.512-0.32-0.288-0.608-0.608-0.864-0.928-0.16-0.16-0.256-0.32-0.416-0.448-0.192-0.256-0.416-0.512-0.608-0.768-0.224-0.32-0.416-0.576-0.64-0.896-0.096-0.16-0.224-0.32-0.384-0.48-0.192-0.32-0.384-0.608-0.544-0.928-0.16-0.256-0.352-0.512-0.48-0.768-0.096-0.192-0.224-0.384-0.32-0.608-0.192-0.32-0.384-0.672-0.544-1.056-0.096-0.224-0.224-0.48-0.32-0.672-0.096-0.224-0.192-0.448-0.288-0.64-0.192-0.384-0.32-0.768-0.48-1.12-0.096-0.224-0.192-0.448-0.256-0.672-0.096-0.256-0.16-0.48-0.256-0.704-0.096-0.352-0.224-0.736-0.32-1.12-0.064-0.288-0.128-0.544-0.192-0.8-0.064-0.256-0.096-0.48-0.16-0.704-0.064-0.32-0.128-0.672-0.192-1.024-0.064-0.352-0.128-0.672-0.192-0.992 0-0.128-0.032-0.288-0.096-0.384l-30.976-267.712c-0.992-8.384 1.952-16.736 7.904-22.688 5.984-5.984 14.336-8.896 22.72-7.936l267.712 31.008c0.096 0 0.256 0.064 0.384 0.064 0.512 0.064 0.992 0.16 1.504 0.256 0.416 0.064 0.832 0.128 1.248 0.224 0.416 0.096 0.864 0.256 1.248 0.352 0.48 0.16 0.928 0.256 1.408 0.416 0.32 0.096 0.64 0.256 1.024 0.384 0.48 0.192 0.992 0.384 1.44 0.608 0.352 0.128 0.672 0.32 0.992 0.48 0.48 0.224 0.928 0.448 1.408 0.704 0.384 0.224 0.768 0.48 1.12 0.704 0.384 0.224 0.736 0.448 1.088 0.704 0.416 0.288 0.832 0.608 1.28 0.96 0.256 0.224 0.544 0.448 0.832 0.672 0.416 0.352 0.768 0.736 1.184 1.12 0.256 0.256 0.512 0.48 0.768 0.768 0.32 0.32 0.608 0.736 0.96 1.088 0.288 0.32 0.544 0.64 0.8 0.992 0.288 0.32 0.48 0.672 0.736 1.056 0.288 0.384 0.576 0.832 0.864 1.248 0.064 0.096 0.16 0.192 0.224 0.32 17.856 29.376 23.168 64 15.008 97.376-8.192 33.44-28.896 61.664-58.272 79.52-3.264 1.952-6.592 3.712-10.016 5.408l595.232 595.232c28.096-38.72 33.664-78.88 33.664-104.448 0-8.352-0.608-15.072-1.184-19.776-11.744-12.16-489.632-506.336-489.632-506.336-5.184-5.376-7.808-12.288-7.808-19.2 0-7.232 2.816-14.432 8.416-19.872 10.976-10.592 28.448-10.304 39.072 0.64l495.648 512.576c3.552 3.648 6.016 8.224 7.104 13.184 1.056 4.576 24.384 114.816-65.408 204.576z" />
<glyph unicode="&#xe613;" d="M357.824-26.208c-5.056 0-10.112 1.376-14.592 4.192-9.696 6.144-14.528 17.76-12.032 28.992l75.68 341.696-329.184-88.032c-11.328-3.072-23.36 1.504-29.824 11.296-6.464 9.76-5.952 22.624 1.248 31.872 3.648 4.672 90.368 115.328 151.904 159.488 35.584 25.536 176.96 69.696 281.568 93.344 14.688 3.328 29.312-5.888 32.64-20.608 3.328-14.688-5.92-29.312-20.608-32.64-122.048-27.584-241.088-69.6-261.76-84.448-26.016-18.688-58.592-52.576-85.824-83.264l289.12 77.344c9.216 2.464 19.040-0.032 25.92-6.656 6.88-6.592 9.824-16.288 7.776-25.6l-13.824-62.688-54.080-244.064c30.944 27.936 65.536 62.432 82.688 90.592 14.080 23.136 50.080 140.48 79.168 271.904 1.76 7.968 7.008 14.72 14.272 18.432l165.632 84.128c8.352 4.256 18.304 3.904 26.368-0.864 5.184-3.136 9.12-7.808 11.328-13.28 16.384-34.144 54.784-52.768 91.84-44.352 21.376 4.832 39.584 17.696 51.296 36.192 11.648 18.496 15.456 40.384 10.592 61.664-4.832 21.376-17.664 39.52-36.16 51.136-18.496 11.616-40.384 15.36-61.664 10.496-34.048-7.68-74.528-30.816-117.44-55.296-27.328-15.584-55.584-31.712-86.144-46.496-2.624-1.504-5.568-2.56-8.64-3.136-8.672-1.568-17.568 1.152-23.872 7.296-6.368 6.24-9.376 15.2-7.904 24 0.48 3.072 1.504 5.984 2.944 8.704 14.688 30.784 30.784 59.232 46.336 86.752 24.288 42.976 47.2 83.552 54.752 117.536 4.736 21.376 0.896 43.296-10.816 61.728-11.712 18.432-29.952 31.2-51.328 35.936-21.312 4.704-43.2 0.832-61.6-10.912-18.464-11.744-31.232-30.016-35.968-51.424-9.024-40.512 13.728-81.344 52.864-94.944 14.24-4.96 21.792-20.512 16.832-34.752-4.96-14.24-20.512-21.792-34.752-16.864-65.344 22.72-103.264 90.784-88.256 158.368 7.904 35.584 29.184 66.016 59.872 85.6 30.72 19.616 67.232 26.080 102.816 18.176 35.584-7.904 65.984-29.184 85.536-59.936 19.552-30.72 25.952-67.264 18.048-102.816-9.312-41.92-34.176-85.952-60.512-132.576-1.216-2.144-2.432-4.288-3.648-6.432 2.144 1.216 4.256 2.432 6.368 3.616 46.528 26.592 90.496 51.648 132.416 61.152 35.456 8.064 72 1.856 102.816-17.568 30.848-19.392 52.288-49.696 60.32-85.28 8.064-35.52 1.76-72.064-17.696-102.88-19.456-30.816-49.792-52.224-85.376-60.288-53.056-12.064-107.872 9.184-139.552 51.552l-131.488-66.784c-25.248-111.424-62.208-241.728-83.040-275.904-40.192-65.984-151.936-153.024-156.672-156.704-4.896-3.776-10.816-5.664-16.704-5.664z" />
<glyph unicode="&#xe614;" d="M972.64 406.624l-0.032 0.48-3.040-0.256 3.008 0.576c-0.064 0.608-0.128 1.152-0.224 1.792l-0.128 0.64c-0.128 0.544-0.256 1.12-0.416 1.76l-0.16 0.544c-0.128 0.352-0.224 0.704-0.32 1.056l-0.064 0.256c-25.824 73.248-69.152 140.448-125.312 194.336l-7.776 7.232c-92.224 84.8-211.712 131.808-336.512 132.448l-13.184-0.16c-121.44-2.624-238.016-49.952-328.224-133.216l-5.248-4.832c-55.84-53.024-99.328-119.136-125.728-191.2l-0.672-2.144c-0.128-0.416-0.224-0.864-0.352-1.312-0.032-0.224-0.128-0.576-0.16-0.928l2.976-0.608-3.040 0.352c-0.064-0.384-0.128-0.768-0.16-1.184-0.032-0.256-0.064-0.672-0.128-1.216-0.032-0.352-0.064-0.672-0.064-1.152-0.032-0.384 0-0.736 0-1.216 0-0.32 0.032-0.672 0.064-1.088 0.032-0.384 0.064-0.8 0.128-1.184 0.032-0.384 0.096-0.704 0.16-1.184 0.064-0.352 0.16-0.704 0.256-1.152 0.064-0.384 0.16-0.64 0.256-1.024 0.096-0.32 0.192-0.672 0.352-1.184 0.096-0.32 0.224-0.64 0.32-0.96 0.16-0.416 0.32-0.8 0.48-1.184 0.128-0.32 0.288-0.672 0.416-0.96 0.224-0.416 0.384-0.736 0.608-1.12 0.16-0.32 0.32-0.576 0.544-0.928 0.192-0.352 0.416-0.64 0.608-0.96 0.224-0.32 0.448-0.608 0.704-0.992 0.192-0.224 0.384-0.448 0.704-0.864 0.256-0.288 0.48-0.576 0.864-0.96 0.224-0.256 0.48-0.512 0.704-0.736 0.32-0.288 0.576-0.544 0.896-0.864 0.256-0.256 0.576-0.48 0.96-0.8 0.256-0.224 0.576-0.448 0.864-0.672 0.224-0.16 0.544-0.384 0.864-0.576l0.192-0.16c0.224-0.128 0.576-0.352 0.864-0.512 0.384-0.224 0.704-0.416 1.056-0.576l1.472 2.656-1.248-2.784c0.224-0.128 0.448-0.256 0.704-0.352l1.248 2.784-1.056-2.848c0.384-0.16 0.768-0.352 1.184-0.48l1.248-0.448 0.992 2.848-0.8-2.944 329.952-104.544 0.672-10.4c4.064-63.36 57.056-113.024 120.576-113.024 66.624 0 120.864 54.208 120.864 120.864 0 59.872-44.672 111.296-103.904 119.68l-9.504 1.344-45.28 143.808c-3.136 10.080-12.352 16.832-22.88 16.832-2.432 0-4.864-0.352-7.2-1.088-12.64-3.968-19.68-17.504-15.712-30.144l50.752-161.216c3.168-10.080 12.384-16.832 22.88-16.832 0.608 0 1.376 0.032 2.272 0.128l0.928 0.064c2.24 0.224 4.544 0.32 6.816 0.32 40.128 0 72.8-32.672 72.8-72.832 0-40.128-32.672-72.8-72.8-72.8-40.16 0-72.832 32.64-72.832 72.8 0 4.8 0.448 9.568 1.376 14.272 0.032 0.224 0.064 0.416 0.128 0.8 0.128 0.608 0.192 1.152 0.256 1.6l0.064 0.992c0.032 0.352 0.064 0.96 0.064 1.408l0.032 0.16-0.032 0.16c-0.032 0.32-0.032 0.672-0.032 0.992l-0.032 0.512c-0.032 0.224-0.032 0.416-0.032 0.608l-0.064 0.448c-0.064 0.384-0.128 0.704-0.16 1.12l-0.128 0.928-1.248 4.192-2.016 3.968-2.432 3.232c-0.16 0.224-0.352 0.416-0.544 0.608l-0.704 0.704-2.080-2.24 1.888 2.368-2.368 2.016-2.656 1.696c-0.288 0.16-0.768 0.384-1.152 0.544l-1.088 0.512c-0.448 0.16-0.992 0.352-1.504 0.512l-325.024 103.040 7.488 15.776c18.784 39.52 43.104 75.968 72.192 108.352l10.624 11.808 38.528-37.6c4.512-4.416 10.464-6.848 16.768-6.848 6.528 0 12.64 2.592 17.184 7.264 4.48 4.608 6.912 10.656 6.848 17.088-0.096 6.432-2.656 12.448-7.264 16.928l-36.96 36.096 13.792 10.72c67.552 52.448 147.808 84.672 232.128 93.12l16.768 1.696-0.032-52.128c0-13.248 10.784-24.032 24-24.032 13.28 0 24.032 10.784 24.032 24l0.032 52.576 16.48-1.344c89.344-7.296 173.856-40.736 244.448-96.704l12.192-9.696-34.528-41.504c-8.48-10.176-7.072-25.376 3.136-33.824 5.504-4.608 11.392-5.568 15.328-5.568 7.168 0 13.92 3.168 18.496 8.672l32.608 39.232 11.776-13.408c28.32-32.288 51.872-68.416 70.016-107.456l7.584-16.288-181.44-50.368c-12.768-3.552-20.256-16.832-16.704-29.568 2.88-10.368 12.384-17.6 23.136-17.6 2.144 0 4.32 0.288 6.464 0.896l206.944 57.504-0.96 2.88 1.152-2.816 1.44 0.448c0.32 0.128 0.64 0.256 0.96 0.416l1.152 0.48c0.384 0.192 0.672 0.384 0.96 0.512l0.608 0.352c0.192 0.128 0.384 0.224 0.608 0.352 0.256 0.16 0.48 0.32 0.864 0.576l0.352 0.224c0.256 0.16 0.512 0.352 0.704 0.512 0.224 0.192 0.48 0.416 0.864 0.704l0.192 0.16c0.256 0.224 0.512 0.416 0.864 0.768l0.64 0.64c0.256 0.32 0.576 0.576 0.864 0.896l0.672 0.8c0.256 0.32 0.64 0.768 0.928 1.184l0.512 0.768c0.224 0.352 0.448 0.704 0.672 1.088l0.576 1.12c0.16 0.256 0.288 0.544 0.48 0.96l0.352 0.832c0.064 0.192 0.352 0.864 0.48 1.28l0.352 1.088c0.096 0.32 0.192 0.64 0.32 1.088l0.16 0.896c0.128 0.512 0.224 1.056 0.288 1.536l0.064 0.8c0.032 0.416 0.096 0.96 0.128 1.344v0.992c0.032 0.448 0 0.96-0.032 1.472z" horiz-adv-x="992" />
<glyph unicode="&#xe615;" d="M522.048 876.416c-233.088 0-422.688-189.632-422.688-422.72 0-233.056 189.6-422.656 422.688-422.656 233.088 0 422.688 189.632 422.688 422.656 0.032 233.088-189.568 422.72-422.688 422.72M522.048-23.52c-263.136 0-477.216 214.080-477.216 477.184 0 263.168 214.080 477.248 477.216 477.248 263.136 0 477.216-214.080 477.216-477.248 0-263.104-214.080-477.184-477.216-477.184zM347.456 539.712h-106.528v-57.312h98.080c7.232 0 12.608-1.6 16.16-4.832 3.552-3.264 5.344-7.52 5.344-12.832 0-5.312-1.76-9.632-5.248-12.992-3.52-3.328-8.928-4.992-16.256-4.992h-98.080v-66.432h110.176c7.424 0 13.056-1.728 16.8-5.184 3.776-3.424 5.664-8.032 5.664-13.76 0-5.536-1.888-10.016-5.664-13.44-3.776-3.456-9.376-5.184-16.8-5.184h-128.512c-10.304 0-17.696 2.272-22.208 6.848-4.512 4.544-6.784 11.936-6.784 22.144v175.488c0 6.816 1.024 12.352 3.040 16.64 2.016 4.32 5.184 7.424 9.472 9.408 4.32 1.984 9.792 2.944 16.48 2.944h124.864c7.552 0 13.152-1.664 16.8-5.024 3.648-3.328 5.472-7.712 5.472-13.152 0-5.536-1.824-9.952-5.472-13.28-3.68-3.36-9.248-5.024-16.8-5.024zM605.152 416.448c0-7.424-1.824-15.456-5.504-24.128-3.648-8.64-9.408-17.152-17.28-25.472-7.84-8.352-17.888-15.104-30.080-20.288-12.224-5.216-26.432-7.776-42.688-7.776-12.32 0-23.52 1.152-33.6 3.488-10.112 2.336-19.264 5.952-27.488 10.912-8.224 4.928-15.776 11.424-22.688 19.52-6.144 7.328-11.424 15.52-15.776 24.608-4.352 9.056-7.616 18.752-9.792 29.056-2.176 10.304-3.264 21.248-3.264 32.8 0 18.784 2.72 35.616 8.192 50.464 5.472 14.88 13.28 27.584 23.488 38.144 10.176 10.528 22.144 18.592 35.84 24.128 13.696 5.536 28.288 8.288 43.776 8.288 18.912 0 35.744-3.776 50.496-11.296 14.752-7.552 26.048-16.864 33.92-27.968 7.84-11.104 11.808-21.536 11.808-31.424 0-5.408-1.92-10.176-5.728-14.336-3.808-4.128-8.416-6.208-13.824-6.208-6.048 0-10.592 1.44-13.632 4.32-3.040 2.848-6.4 7.808-10.112 14.816-6.144 11.584-13.408 20.224-21.728 25.952-8.352 5.728-18.592 8.576-30.816 8.576-19.424 0-34.912-7.36-46.432-22.144-11.52-14.752-17.28-35.712-17.28-62.912 0-18.144 2.528-33.248 7.648-45.312 5.088-12.064 12.32-21.024 21.664-27.008 9.344-5.952 20.288-8.896 32.8-8.896 13.6 0 25.088 3.36 34.464 10.112 9.408 6.72 16.48 16.64 21.28 29.696 2.016 6.144 4.512 11.168 7.488 15.040 2.976 3.904 7.744 5.824 14.336 5.824 5.632 0 10.464-1.984 14.496-5.92 4.032-3.904 6.048-8.8 6.048-14.656zM817.568 460.096c0 17.088-2.752 31.904-8.256 44.448-5.536 12.512-13.408 22.016-23.648 28.416-10.24 6.432-22.016 9.632-35.264 9.632-9.44 0-18.176-1.792-26.208-5.344-8-3.552-14.912-8.736-20.704-15.52-5.792-6.816-10.336-15.488-13.696-26.048-3.328-10.56-5.024-22.432-5.024-35.584 0-13.28 1.664-25.248 5.024-35.968 3.328-10.752 8.064-19.616 14.176-26.688 6.112-7.072 13.12-12.32 21.024-15.84 7.904-3.488 16.576-5.248 26.016-5.248 12.096 0 23.2 3.040 33.344 9.088 10.144 6.048 18.208 15.392 24.224 28.032 5.984 12.64 8.96 28.16 8.96 46.656M750.368 580.192c24.192 0 44.992-4.896 62.336-14.72 17.376-9.824 30.496-23.776 39.392-41.888 8.896-18.112 13.376-39.36 13.376-63.776 0-18.048-2.432-34.464-7.328-49.184-4.896-14.752-12.224-27.552-21.984-38.4-9.76-10.816-21.76-19.104-35.968-24.832-14.24-5.728-30.528-8.608-48.896-8.608-18.272 0-34.592 2.944-49.056 8.832-14.432 5.888-26.496 14.208-36.16 24.928-9.664 10.72-16.96 23.616-21.888 38.688-4.928 15.072-7.424 31.36-7.424 48.864 0 17.92 2.56 34.4 7.712 49.376 5.152 14.976 12.608 27.712 22.368 38.208 9.76 10.528 21.664 18.56 35.68 24.16 14.016 5.536 29.92 8.352 47.776 8.352z" />
<glyph unicode="&#xe616;" d="M663.84 543.040c-13.376-10.688-15.52-30.144-4.832-43.552 21.472-26.816 26.688-77.28 0.224-109.632-10.816-13.216-8.896-32.736 4.352-43.552 5.76-4.704 12.704-7.040 19.616-7.040 8.96 0 17.856 3.872 24 11.36 42.592 52.064 42.688 134.432 0.224 187.552-10.688 13.376-30.176 15.52-43.552 4.832zM764.768 637.76c-12.928-11.2-14.336-30.752-3.104-43.68 67.488-77.856 67.424-208.576-0.16-304.096-9.856-13.952-6.56-33.28 7.392-43.168 5.44-3.84 11.648-5.696 17.856-5.696 9.696 0 19.264 4.576 25.312 13.12 83.584 118.080 82.016 281.632-3.616 380.416-11.2 12.928-30.752 14.336-43.68 3.104zM925.632 713.056c-10.56 13.472-29.984 15.84-43.456 5.312-13.504-10.528-15.84-29.984-5.312-43.456 102.912-131.584 83.968-351.84 2.56-467.136-9.856-13.984-6.528-33.28 7.424-43.168 5.44-3.84 11.648-5.696 17.824-5.696 9.728 0 19.296 4.576 25.344 13.12 49.6 70.304 78.592 167.904 79.488 267.872 1.024 105.76-28.768 202.752-83.84 273.184zM606.688 641.088l-291.968-81.984v68.768c0 17.12-13.856 30.976-30.976 30.976h-115.744c-17.12 0-30.976-13.856-30.976-30.976 0-17.088 13.856-30.976 30.976-30.976h84.8v-78.72c0-9.696 4.544-18.816 12.288-24.672 7.712-5.888 17.76-7.744 27.040-5.152l278.88 78.336-64.064-238.176-216.384 48.576c-9.184 2.080-18.784-0.192-26.144-6.048-7.328-5.856-11.616-14.752-11.616-24.16v-64.448h-173.376v345.408c0 17.12-13.856 30.976-30.976 30.976-17.12 0-30.976-13.856-30.976-30.976v-376.352c0-17.088 13.856-30.976 30.976-30.976h235.296c17.12 0 30.976 13.856 30.976 30.976v56.736l207.616-46.624c16.192-3.616 32.384 6.144 36.704 22.176l85.952 319.456c2.88 10.752-0.224 22.24-8.128 30.048-7.904 7.776-19.424 10.784-30.144 7.776z" />
<glyph unicode="&#xe617;" d="M466.976 540.224l82.496 23.168-22.4-83.232-60.096 60.064zM309.216 556.224v59.68l46.592-46.592-46.592-13.088zM999.36 7.808l-343.648 343.648c2.784-0.864 5.632-1.28 8.512-1.28 8.416 0 16.736 3.584 22.496 10.592 39.936 48.832 40.032 126.016 0.224 175.808-10.048 12.512-28.288 14.56-40.832 4.544-12.512-10.016-14.56-28.288-4.544-40.832 20.128-25.152 25.024-72.448 0.224-102.752-6.4-7.808-8.032-17.92-5.28-26.88l-62.080 62.048 44.32 164.832c2.72 10.080-0.192 20.864-7.616 28.224-7.424 7.328-18.176 10.112-28.256 7.296l-162.976-45.76-330.528 330.528c-11.328 11.328-29.728 11.328-41.056 0-11.328-11.36-11.328-29.728 0-41.088l227.040-227.040h-102.496c-16.032 0-29.024-12.992-29.024-29.024s12.992-29.024 29.024-29.024h78.272v-73.728c0-9.088 4.256-17.664 11.488-23.168 7.264-5.472 16.64-7.264 25.376-4.768l114.848 32.256 106.784-106.784-20.256-75.328-202.848 45.536c-8.608 1.92-17.6-0.128-24.512-5.664s-10.88-13.856-10.88-22.688v-60.416h-162.56v323.776c0 16.032-12.992 29.024-29.024 29.024s-29.024-12.992-29.024-29.024v-352.832c0-16.032 12.992-29.024 29.024-29.024h220.608c16.032 0 29.024 12.992 29.024 29.024v53.184l194.656-43.712c15.136-3.392 30.336 5.76 34.368 20.768l18.816 69.952 401.28-401.28c5.664-5.664 13.088-8.512 20.544-8.512 7.424 0 14.848 2.848 20.512 8.512 11.328 11.328 11.328 29.728 0 41.056zM737.728 303.936c-9.28-13.088-6.144-31.2 6.944-40.448 5.088-3.616 10.944-5.344 16.736-5.344 9.12 0 18.080 4.288 23.712 12.256 78.336 110.72 76.864 264.064-3.392 356.64-10.496 12.096-28.832 13.44-40.928 2.912-12.128-10.496-13.44-28.832-2.912-40.96 63.264-72.96 63.2-195.52-0.128-285.056zM848.224 226.816c-9.248-13.088-6.112-31.2 6.976-40.448 5.088-3.584 10.912-5.344 16.704-5.344 9.12 0 18.080 4.288 23.744 12.352 46.464 65.888 73.632 157.408 74.528 251.104 0.928 99.136-27.008 190.080-78.624 256.064-9.856 12.64-28.128 14.848-40.736 4.992-12.608-9.888-14.848-28.128-4.96-40.768 96.48-123.328 78.688-329.792 2.368-437.92z" />
<glyph unicode="&#xe618;" d="M294.528 531.040c0-51.712 18.528-101.728 52.192-140.896 0.768-0.896 1.6-1.728 2.496-2.528 34.4-30.784 42.56-38.112 42.848-80.32 0.096-15.040 12.416-27.168 27.488-27.072 14.976 0.096 27.072 12.288 27.072 27.264 0 0.096 0 0.16 0 0.224-0.48 62.624-19.616 83.36-59.328 119.008-24.608 29.12-38.208 66.080-38.208 104.32 0 88.736 72.192 160.928 160.96 160.928 88.768 0 160.992-72.192 160.992-160.928 0-43.296-16.832-83.808-47.392-114.080-0.096-0.064-0.16-0.192-0.256-0.288-36.512-37.184-56.64-90.496-56.64-150.048v-6.72h-113.536c-7.424 0.576-26.432 0.384-42.912-13.952-9.952-8.608-21.792-25.312-21.792-55.68 0-27.744 11.488-43.488 21.088-51.776 17.856-15.392 40.032-15.072 47.904-14.4h103.392c0.032 0 0.192 0 0.32 0 6.88-0.384 8.352-11.008 8.352-19.872 0-5.44-0.96-9.6-2.592-11.136-2.016-1.856-6.784-2.4-8.928-2.272l0.544-0.032c-0.8 0.064-2.016 0.128-2.816 0.128h-122.912c-13.344 0-24.736-9.664-26.912-22.848-0.832-5.12-7.488-50.816 18.208-81.056 9.44-11.104 26.944-24.352 56.736-24.352 17.632 0 30.592 0.128 38.528 0.416l8.544 0.512c17.184 1.824 25.472 14.464 26.080 26.144 0.672 12.992-8.256 27.136-26.496 28.992-3.712 0.384-7.296-0.096-10.656-1.152-5.376-0.16-15.744-0.384-35.968-0.384-10.784 0-13.92 3.712-15.104 5.088-2.944 3.424-4.608 8.608-5.6 14.112h94.688c7.104-0.384 30.304-0.256 48.544 16.192 9.44 8.48 20.672 24.384 20.672 51.68 0 24.864-7.2 44.32-21.376 57.792-17.888 16.992-39.104 16.8-43.2 16.576 0.448 0.032 0.928 0.032 1.376 0.032h-104.768c-1.216 0-2.816-0.096-4-0.32l0.544 0.096c-2.432-0.256-6.304 0.32-7.488 1.408-0.736 0.672-2.144 3.712-2.144 10.432 0 9.216 1.952 13.504 2.976 14.496 0.576 0.576 2.304 0.8 3.072 0.736l-0.96 0.096c1.024-0.096 2.784-0.256 3.808-0.256h142.080c15.040 0 27.264 12.224 27.264 27.264v34.016c0 44.512 14.976 85.28 41.024 111.84-0.096-0.064-0.16-0.16-0.256-0.256 40.96 40.576 63.552 94.848 63.552 152.832 0 118.816-96.672 215.488-215.52 215.488-118.848 0.032-215.52-96.64-215.52-215.488zM472.48 917.536l-0.096-90.848c-0.032-15.040 12.192-27.296 27.232-27.296 15.072-0.032 27.296 12.192 27.296 27.232l0.096 90.848c0.032 15.040-12.192 27.296-27.232 27.296-15.072 0.032-27.296-12.16-27.296-27.232zM754.976 832.448l-64.32-64.16c-10.656-10.656-10.656-27.936-0.032-38.56 10.624-10.656 27.904-10.688 38.56-0.032l64.32 64.16c10.656 10.656 10.688 27.936 0.064 38.56-10.656 10.656-27.904 10.656-38.592 0.032zM771.712 538.080c-0.032-15.104 12.192-27.296 27.232-27.296l90.848-0.096c15.040 0 27.296 12.192 27.296 27.264 0.032 15.040-12.16 27.296-27.232 27.296l-90.848 0.096c-15.072 0-27.296-12.224-27.296-27.232zM215.872 819.36c-10.656-10.592-10.656-27.904-0.032-38.56l64.192-64.32c10.624-10.656 27.904-10.656 38.56-0.032 10.656 10.592 10.688 27.904 0.032 38.56l-64.16 64.32c-10.656 10.656-27.904 10.656-38.56 0.032zM99.072 536.832c-0.032-15.040 12.192-27.296 27.232-27.296l90.848-0.096c15.040 0 27.296 12.192 27.296 27.264 0.032 15.040-12.16 27.296-27.232 27.296l-90.848 0.096c-15.072 0.032-27.296-12.16-27.296-27.232z" />
<glyph unicode="&#xe619;" d="M918.272 689.664h-799.36c-48.736 0-88.384-39.648-88.384-88.416v-36.224c0-15.264 12.384-27.616 27.648-27.616 15.232 0 27.616 12.384 27.616 27.616v36.256c0 18.272 14.88 33.152 33.152 33.152h799.36c18.272 0 33.152-14.88 33.152-33.152v-13.184c-1.248-1.856-2.304-3.84-3.104-6.048l-93.696-255.648c-5.248-14.304 2.080-30.176 16.416-35.424 3.136-1.152 6.368-1.696 9.504-1.696 11.264 0 21.856 6.912 25.952 18.112l44.928 122.624v-146.016c0-18.272-14.88-33.152-33.152-33.152h-799.36c-18.272 0-33.152 14.88-33.152 33.152v36.672c0 15.264-12.384 27.648-27.648 27.648-15.232 0-27.616-12.384-27.616-27.648v-36.672c0-48.736 39.648-88.416 88.384-88.416h799.36c48.736 0 88.384 39.68 88.384 88.416v317.28c0 48.736-39.648 88.384-88.384 88.384zM230.72 571.168c-10.784 10.784-28.288 10.784-39.072 0l-110.144-110.144c-5.184-5.184-8.096-12.224-8.096-19.584 0-7.328 2.944-14.368 8.128-19.52l110.496-110.112c5.376-5.376 12.448-8.064 19.488-8.064 7.072 0 14.176 2.72 19.584 8.128 10.784 10.816 10.752 28.32-0.064 39.072l-63.808 63.584h211.264v-96.512c0-13.408 9.6-24.832 22.752-27.2 1.632-0.288 3.264-0.416 4.864-0.416 11.36 0 21.792 7.040 25.888 18.016l94.176 254.592c5.28 14.272-2.016 30.208-16.32 35.488-14.272 5.312-30.208-2.016-35.488-16.32l-40.64-109.888v106.656c0 15.232-12.384 27.616-27.648 27.616-15.232 0-27.616-12.384-27.616-27.616v-109.184h-210.080l62.336 62.336c10.784 10.784 10.784 28.288 0 39.072zM752.864 291.008c3.136-1.152 6.368-1.696 9.504-1.696 11.264 0 21.856 6.912 25.952 18.112l93.696 255.68c5.248 14.304-2.080 30.176-16.416 35.424s-30.208-2.080-35.424-16.416l-93.728-255.68c-5.248-14.304 2.112-30.176 16.448-35.424zM747.392 598.528c-14.304 5.248-30.208-2.080-35.424-16.416l-93.696-255.648c-5.248-14.336 2.080-30.176 16.416-35.424 3.136-1.152 6.368-1.728 9.504-1.728 11.264 0 21.824 6.976 25.92 18.176l93.696 255.648c5.248 14.272-2.080 30.144-16.416 35.424zM629.216 598.528c-14.336 5.248-30.208-2.080-35.424-16.416l-93.696-255.648c-5.248-14.336 2.080-30.176 16.416-35.424 3.136-1.152 6.368-1.728 9.504-1.728 11.264 0 21.856 6.976 25.952 18.176l93.696 255.648c5.248 14.272-2.080 30.144-16.416 35.424z" />
<glyph unicode="&#xe61a;" d="M928.096 689.44h-798.72c-48.704 0-88.32-39.616-88.32-88.288l0.032-36.224c0-15.232 12.352-27.616 27.584-27.584 15.232 0 27.584 12.352 27.584 27.584v36.224c0 18.24 14.88 33.12 33.12 33.12h798.688c18.24 0 33.12-14.88 33.12-33.12v-13.152c-1.248-1.856-2.304-3.84-3.136-6.016l-93.6-255.424c-5.248-14.336 2.080-30.176 16.416-35.424 3.136-1.152 6.336-1.696 9.504-1.696 11.232 0 21.856 6.944 25.888 18.112l44.896 122.496v-145.92c0-18.272-14.88-33.12-33.12-33.12h-798.688c-18.24 0-33.12 14.848-33.12 33.12v36.64c0 15.264-12.352 27.616-27.584 27.616s-27.616-12.384-27.616-27.616v-36.64c0-48.704 39.616-88.32 88.32-88.32h798.688c48.704 0 88.32 39.616 88.32 88.32v316.992c0.032 48.704-39.616 88.288-88.288 88.288zM121.024 442.176c0-15.232 12.352-27.584 27.584-27.584h268.128l-63.552-63.584c-10.784-10.752-10.784-28.256 0-39.040 5.408-5.408 12.448-8.096 19.552-8.096 7.072 0 14.144 2.72 19.488 8.096l110.048 110.048c5.184 5.184 8.096 12.224 8.096 19.552s-2.912 14.336-8.128 19.52l-110.4 110.016c-10.816 10.752-28.288 10.752-39.040-0.064-10.752-10.784-10.752-28.288 0.064-39.040l62.464-62.208h-266.72c-15.232 0.032-27.616-12.352-27.616-27.584zM676.544 606.4c-15.232 0-27.584-12.352-27.584-27.552v-260.736c0-13.376 9.568-24.8 22.72-27.168 1.632-0.288 3.264-0.48 4.864-0.48 11.36 0 21.792 7.072 25.856 18.048l94.112 254.368c5.28 14.272-2.016 30.176-16.32 35.456-14.272 5.28-30.176-2.016-35.456-16.32l-40.64-109.792v106.56c0 15.264-12.384 27.584-27.584 27.584zM773.696 291.136c3.136-1.152 6.336-1.696 9.504-1.696 11.264 0 21.824 6.944 25.92 18.112l93.6 255.424c5.248 14.336-2.080 30.208-16.416 35.424-14.304 5.248-30.176-2.080-35.424-16.416l-93.632-255.424c-5.248-14.336 2.112-30.208 16.416-35.424z" />
<glyph unicode="&#xe61b;" d="M574.432 322.72c-6.88 0-13.824 2.272-19.552 6.976-13.216 10.784-15.168 30.24-4.352 43.424 37.216 45.472 37.152 120.416-0.224 167.072-10.688 13.344-8.48 32.768 4.832 43.424 13.312 10.656 32.768 8.48 43.424-4.832 55.52-69.344 55.424-176.896-0.192-244.8-6.112-7.456-14.976-11.296-23.936-11.296zM718.176 186.624c-6.144 0-12.384 1.856-17.824 5.696-13.92 9.824-17.248 29.088-7.392 43.040 96.864 136.768 96.64 324.352-0.512 436.288-11.168 12.896-9.792 32.416 3.104 43.552 12.896 11.168 32.416 9.792 43.584-3.104 115.264-132.832 117.088-353.12 4.288-512.448-6.016-8.48-15.584-13.056-25.248-13.056zM881.728 72.64c-6.144 0-12.384 1.824-17.792 5.664-13.952 9.856-17.28 29.12-7.424 43.040 115.36 163.36 142.144 475.328-3.872 661.856-10.528 13.44-8.128 32.832 5.312 43.328 13.44 10.528 32.864 8.128 43.392-5.312 74.72-95.424 115.136-227.2 113.76-371.040-1.28-136.16-40.672-268.96-108.064-364.416-6.016-8.512-15.584-13.088-25.28-13.088zM430.464 50.752c-8.608 0-17.056 3.552-23.136 10.080l-190.88 206.848h-158.976c-17.344 0-31.424 14.048-31.424 31.392v258.656c0 17.344 14.080 31.424 31.424 31.424 17.376 0 31.456-14.080 31.456-31.424v-227.232h141.312c8.768 0 17.152-3.648 23.104-10.080l145.664-157.92v551.424l-144.8-170.752c-5.952-7.040-14.72-11.104-23.968-11.104h-64.48c-17.344 0-31.424 14.080-31.424 31.424s14.080 31.392 31.424 31.392h49.888l190.816 224.96c8.512 10.048 22.432 13.728 34.784 9.152 12.384-4.544 20.608-16.32 20.608-29.472v-717.376c0-12.928-7.936-24.544-19.968-29.248-3.712-1.408-7.616-2.144-11.424-2.144z" />
<glyph unicode="&#xe61c;" d="M732.192-32.8c-10.432 0-20.64 4.32-27.968 12.256l-231.264 251.040h-192.544c-21.056 0-38.080 17.056-38.080 38.112v313.888c0 21.024 17.024 38.080 38.080 38.080 21.024 0 38.080-17.088 38.080-38.080v-275.808h171.136c10.656 0 20.8-4.448 28-12.256l176.48-191.648v669.248l-175.456-207.232c-7.232-8.512-17.856-13.472-29.056-13.472h-78.080c-21.056 0-38.112 17.088-38.112 38.144s17.056 38.112 38.112 38.112h60.448l231.136 273.024c10.304 12.192 27.168 16.64 42.144 11.104 14.944-5.472 24.96-19.776 24.96-35.744v-870.624c0-15.68-9.632-29.792-24.224-35.52-4.416-1.728-9.152-2.592-13.824-2.592z" />
<glyph unicode="&#xe61d;" d="M348.608 654.080l27.2 32.096v-59.296l-27.2 27.2zM995.616 7.072l-122.528 122.528c50.24 85.92 79.2 196.32 80.256 309.088 1.28 135.008-36.608 258.624-106.656 348.192-9.856 12.608-28.064 14.816-40.64 4.96-12.608-9.856-14.816-28.064-4.96-40.672 125.216-160.096 114.88-418.688 29.376-578.912l-94.816 94.848c66.336 140.448 52.512 309.632-40.96 417.408-10.496 12.096-28.8 13.376-40.864 2.912-12.096-10.496-13.44-28.8-2.912-40.896 74.56-86.016 88.192-219.52 40.864-335.552l-93.92 93.888c11.040 53.152-0.608 111.648-34.944 154.528-9.984 12.512-28.192 14.528-40.736 4.544-12.448-10.016-14.528-28.224-4.48-40.736 14.368-17.984 22.88-40.448 25.44-63.616l-108.352 108.352v198.56c0 12.384-7.712 23.392-19.328 27.68-11.584 4.288-24.64 0.832-32.608-8.608l-75.968-89.664-222.752 222.752c-11.392 11.36-29.76 11.36-41.12 0s-11.36-29.76 0-41.12l226.176-226.144-65.152-76.864h-46.784c-16.288 0-29.472-13.184-29.472-29.472 0-16.256 13.184-29.44 29.472-29.44h60.416c8.64 0 16.864 3.808 22.464 10.4l70.848 83.584 64.896-64.928v-375.776l-136.576 148.128c-5.568 6.048-13.44 9.472-21.664 9.472h-132.48v213.248c0 16.256-13.184 29.44-29.44 29.44-16.288 0-29.472-13.184-29.472-29.44v-242.656c0-16.288 13.216-29.472 29.472-29.472h149.056l178.944-194.080c5.696-6.176 13.6-9.504 21.664-9.504 3.584 0 7.232 0.672 10.688 2.016 11.328 4.448 18.752 15.328 18.752 27.456v392.224l97.056-97.056c-3.744-7.968-8.416-15.424-13.952-22.208-10.176-12.384-8.352-30.656 4.064-40.768 5.376-4.416 11.872-6.56 18.336-6.56 8.416 0 16.704 3.648 22.432 10.592 4.256 5.216 8.128 10.688 11.68 16.352l89.632-89.632c-4.032-6.496-8.192-12.928-12.608-19.232-9.28-13.088-6.176-31.136 6.912-40.384 5.088-3.552 10.944-5.312 16.672-5.312 9.12 0 18.048 4.256 23.68 12.256 2.528 3.552 4.896 7.168 7.328 10.784l94.208-94.24c-2.688-11.168 1.472-23.392 11.424-30.432 5.088-3.552 10.912-5.312 16.672-5.312 2.304 0 4.576 0.256 6.784 0.8l119.36-119.36c5.664-5.696 13.12-8.48 20.544-8.48 7.456 0 14.88 2.816 20.576 8.48 11.36 11.328 11.36 29.728 0 41.088z" />
<glyph unicode="&#xe61e;" d="M584.736 424.288c0 0 0.704-0.768 0.992-1.056l-0.928 0.928c-0.064 0.096-0.096 0.096-0.096 0.096M582.368 423.392c-6.88 0-16.512-5.696-26.496-15.68-7.68-7.68-11.488-14.784-11.36-21.056 0.192-8 6.656-14.784 6.72-14.88 0.768-0.672 1.504-1.44 2.24-2.24l142.144-162.88c10.912-12.352 34.112-30.784 48.8-30.784h12.16c14.688 0 37.888 18.432 48.928 30.88l142.016 162.784c0.832 0.96 1.12 1.312 2.016 2.080 0.992 1.088 6.912 7.68 6.912 15.328 0.032 6.208-3.808 13.184-11.392 20.8-9.952 9.952-19.648 15.68-26.464 15.68-1.792 0-3.136-0.384-3.872-0.768l-74.016-82.4c-7.68-8.512-19.776-11.424-30.496-7.296-10.688 4.128-17.728 14.432-17.664 25.888l0.032 7.84c-0.672 188.928-155.072 342.816-344.16 342.816-91.968 0-178.432-35.84-243.424-100.864-64.864-64.896-100.64-151.136-100.768-242.912l0.256-5.056c0.032-0.48 0.032-0.928 0.032-1.376 0-19.776 16.192-35.872 36-35.872 19.872 0 36 15.968 36 35.616 0 0.608 0.032 1.248 0.064 1.888l0.416 5.984c0.736 148.384 121.92 268.96 270.56 268.96 148.352 0 269.76-120.736 270.56-269.12v-12.352c0-11.264-6.848-21.408-17.28-25.6-10.464-4.224-22.432-1.664-30.208 6.432l-84.096 87.296c-0.768 0.352-2.144 0.864-4.128 0.864M756.544 120.608h-12.16c-45.504 0-85.92 44.544-90.4 49.632l-141.472 162.144c-5.536 5.536-22.592 24.864-23.232 52.96-0.384 15.104 4.128 38.016 27.488 61.408 21.184 21.152 43.2 31.872 65.568 31.872 23.968 0 38.592-12.608 41.28-15.168 0.352-0.32 0.672-0.608 0.992-0.96l26.624-27.648c-29.056 84.544-109.568 145.664-203.744 145.664-118.528 0-215.136-96.352-215.296-214.784 0-0.608-0.032-1.216-0.064-1.824l-0.416-6.016c-0.544-49.632-41.28-89.824-91.232-89.824-50.048 0-90.816 40.48-91.232 90.432l-0.256 5.088c-0.032 0.48-0.032 0.896-0.032 1.344-0.064 106.784 41.472 207.168 116.928 282.688 75.456 75.488 175.808 117.024 282.496 117.024 106.432 0 206.56-41.376 281.92-116.512 61.216-61.056 100.256-138.432 112.928-222.4l32.384 36.096c0.544 0.576 1.056 1.12 1.632 1.664 2.688 2.528 17.344 15.168 41.312 15.168 22.368 0 44.416-10.72 65.568-31.872 23.392-23.392 27.872-46.304 27.488-61.408-0.64-28.128-17.696-47.424-23.232-52.96l-141.408-162.048c-4.448-5.152-44.864-49.696-90.368-49.696z" />
<glyph unicode="&#xe61f;" d="M356.256 132c-0.736 0-1.472 0-2.24 0.032-28.576 0.8-47.456 17.376-53.12 23.040l-204.576 178.080c-8.832 6.72-59.808 48.32-59.808 109.504s50.976 102.784 59.808 109.504l204.576 178.112c5.664 5.664 24.576 22.208 53.12 23.008 24.928 0.672 49.056-10.4 71.712-33.088 24.608-24.608 28.8-49.12 27.936-65.312-1.824-34.752-26.88-58.624-33.504-64.352l-43.296-42.912 518.016-0.448c57.504 0 104.288-47.008 104.288-104.8 0-57.76-46.944-104.768-104.64-104.768l-345.12 0.16c-15.232 0-27.616 12.384-27.616 27.616 0.032 15.232 12.384 27.616 27.648 27.616l345.12-0.16c27.232 0 49.376 22.208 49.376 49.536 0 27.328-22.016 49.536-49.088 49.536l-585.024 0.544c-11.2 0-21.28 6.752-25.536 17.088-4.256 10.368-1.824 22.24 6.080 30.144l91.648 90.848c0.768 0.768 1.184 1.152 2.048 1.856 3.712 3.136 13.92 14.176 14.4 25.568 0.128 2.688 0.48 10.912-11.808 23.2-7.904 7.904-19.712 17.184-31.104 16.928-8.672-0.256-15.008-6.208-15.072-6.272-0.768-0.864-1.568-1.664-2.464-2.432l-206.208-179.488c-0.608-0.544-1.28-1.056-1.952-1.568-0.288-0.192-38.144-28.576-38.144-65.632s37.856-65.44 38.24-65.728c0.608-0.448 1.312-0.992 1.856-1.472l206.208-179.52c1.12-0.928 1.44-1.184 2.304-2.176 1.216-1.152 7.296-6.496 15.744-6.496h0.064c11.232 0 22.784 9.184 30.528 16.928 11.776 11.84 11.552 19.936 11.456 22.624-0.384 11.712-10.688 23.2-14.592 26.624-0.736 0.608-0.864 0.768-1.504 1.44l-91.744 91.52c-10.784 10.784-10.816 28.256-0.032 39.104 10.752 10.752 28.256 10.784 39.072 0.032l91.072-90.88c6.24-5.536 31.456-30.080 32.96-65.216 0.672-16.032-3.52-40.192-27.552-64.256-22.080-21.984-45.44-33.152-69.568-33.152z" />
<glyph unicode="&#xe620;" d="M514.912 502.4c11.072 0 22.176-4.192 30.624-12.672l275.84-275.872c1.088-1.056 2.112-2.176 3.040-3.36 5.536-6.592 24.864-24.352 44.832-24.352 11.936 0 24.768 6.72 38.016 20 13.248 13.248 28.864 33.056 28.32 52.448-0.416 15.232-10.848 26.016-10.944 26.080-1.344 1.216-2.624 2.496-3.808 3.84l-294.272 338.048c-0.864 0.96-1.728 2.016-2.4 3.072-0.352 0.448-47.424 63.328-109.216 63.328-61.792 0-108.832-62.848-109.344-63.488-0.704-0.96-1.536-1.984-2.272-2.912l-294.304-338.048c-1.504-1.76-1.888-2.24-3.552-3.616-1.888-1.952-11.168-12.448-11.232-27.168-0.096-19.168 15.328-38.656 28.32-51.648 13.056-13.024 25.28-19.36 37.312-19.36 20.352 0 40.256 17.76 46.24 24.608 0.8 0.96 1.408 1.568 2.272 2.464l275.872 275.872c8.416 8.48 19.488 12.672 30.592 12.672M869.248 99.52c-59.584 0-100.768 43.168-110.4 54.368l-243.936 243.936-244.192-244.192c-9.248-10.368-51.136-53.504-110.88-53.504-24.544 0-61.6 7.776-98.592 44.736-36.736 36.768-54.752 75.84-53.632 116.096 1.28 46.272 28.192 76.832 37.216 85.856l292.064 335.52c10.752 14.080 78.464 97.344 178.048 97.344 99.552 0 167.264-83.264 178.016-97.344l292.064-335.52c9.12-9.024 35.936-39.552 37.248-85.856 1.12-40.256-16.96-79.36-53.664-116.064-30.112-30.176-63.52-45.408-99.296-45.408z" />
<glyph unicode="&#xe621;" d="M1020.608 437.888l-0.192 10.72c-0.704 40.64-38.656 74.848-46.272 81.28 0 0-143.424 120.8-144.928 122.112-5.408 5.152-23.392 20.288-49.152 20.448-13.952 0.096-35.008-4.384-56.064-26.176-21.024-21.824-28.096-42.4-28.096-59.52 0-17.888 7.712-31.904 15.008-39.424 0.544-0.544 1.12-1.088 1.696-1.568 0 0 12.16-10.56 19.872-17.216-96.768-0.032-312.48-0.064-312.48-0.064-0.384 0-0.736-0.032-1.12-0.064-0.352 0.032-0.704 0.064-1.088 0.064h-48.96c-6.4 0.096-31.168-0.768-51.2-19.744-10.976-10.4-24.032-29.92-24.032-63.904 0-58.464 43.52-83.328 72.768-85.792 0.768-0.064 1.536-0.096 2.304-0.096h71.68c15.232 0 27.616 12.352 27.616 27.616s-12.384 27.648-27.616 27.648h-69.632c-8.544 1.28-21.856 6.976-21.856 30.624 0 7.744 1.12 18.144 6.56 23.552 4.8 4.8 12.288 4.864 12.416 4.864l-0.608 0.032c0.352-0.032 1.12-0.032 1.504-0.032h49.12c0.384 0 0.736 0.032 1.12 0.032 0.352 0 0.704-0.032 1.088-0.032l386.432 0.096c11.552 0 21.856 7.168 25.888 17.984 1.184 3.168 1.728 6.4 1.728 9.664 0 7.872-3.328 15.52-9.504 20.896 0 0-67.68 58.688-72.928 63.232-0.192 0.48-0.416 0.992-0.416 1.728 0 4 3.072 11.36 12.512 21.12 4.064 4.224 10.080 9.216 15.744 9.312 5.952 0.096 11.424-4.992 11.456-5.024l-0.384 0.384c0.608-0.608 1.568-1.536 2.304-2.176l145.632-122.688c10.976-9.44 26.464-28.704 26.688-40.064l0.192-10.752c0.192-11.392-14.592-31.168-25.376-41.088l-141.152-127.616c-0.672-0.608-1.568-1.536-2.208-2.24l0.384 0.416c-0.032-0.032-5.312-5.312-11.264-5.44-5.696-0.096-11.872 4.704-16.064 8.768-10.016 9.664-13.28 17.024-13.28 20.928 0 0.704 0.224 1.216 0.384 1.728 3.936 3.904 74.912 74.784 74.912 74.784 5.312 5.28 8.128 12.384 8.128 19.552 0 3.552-0.672 7.136-2.080 10.56-4.288 10.304-14.336 17.056-25.536 17.056l-228.224-0.192c-15.296-0.032-27.616-12.416-27.616-27.648v-372.48h-485.632v492.608c18.016 15.168 389.92 328.224 422.72 355.808 29.568-26.112 180.256-159.168 180.256-159.168 11.456-10.112 28.896-9.024 38.976 2.4 10.112 11.424 9.024 28.896-2.4 38.976l-198.112 174.976c-10.24 9.056-25.6 9.216-36.064 0.416l-450.784-379.456c-6.24-5.248-9.824-12.992-9.824-21.12v-532.992c0-15.232 12.384-27.616 27.616-27.616h540.96c15.232 0 27.584 12.384 27.584 27.616v372.512c28.448 0.032 78.368 0.064 133.792 0.096-14.112-14.048-29.728-29.632-29.728-29.632-0.32-0.32-0.608-0.64-0.96-0.992-6.752-7.456-13.632-20.896-13.632-37.728 0-17.504 7.456-38.72 30.176-60.672 21.792-21.024 43.008-24.768 56.928-24.224 25.696 1.056 43.2 16.832 48.416 22.144 1.472 1.344 140.544 127.040 140.544 127.040 7.36 6.688 43.424 41.6 43.424 81.76-0.032 0.352-0.032 0.736-0.032 1.12z" />
<glyph unicode="&#xe622;" d="M626.368-43.232c-174.784 0-320.8 127.456-349.632 294.272l-23.968-26.656c-0.512-0.576-1.056-1.12-1.632-1.664-14.944-14.048-54.784-29.024-98.624 14.784-21.408 21.408-25.504 42.496-25.184 56.416 0.576 25.664 16.032 43.456 21.312 48.768l124.416 142.624c6.656 7.52 41.44 44.832 82.112 44.832h10.688c40.64 0 75.488-37.312 82.048-44.768l124.48-142.656c5.216-5.28 20.704-23.072 21.312-48.768 0.32-13.92-3.776-35.040-25.184-56.416-43.84-43.872-83.712-28.864-98.624-14.784-0.32 0.32-0.64 0.608-0.992 0.96l-11.904 12.384c29.056-65.088 94.496-110.656 170.176-110.656 102.528 0 186.080 83.296 186.208 185.696 0 0.608 0.032 1.216 0.064 1.824l0.416 6.048c1.024 15.232 14.208 26.688 29.408 25.664s26.688-14.208 25.632-29.408l-0.32-5.184c-0.736-132.352-108.832-239.904-241.44-239.904-132.416 0-240.704 107.712-241.44 240.096v10.816c0 11.264 6.848 21.408 17.28 25.6s22.4 1.664 30.176-6.432l73.6-76.384c3.264-1.12 11.328 1.28 22.688 12.64 4.192 4.192 9.152 10.4 9.024 16.128-0.128 5.472-4.8 10.688-4.832 10.688-0.768 0.704-1.504 1.44-2.208 2.272l-125.088 143.36c-9.632 10.816-29.152 25.952-40.512 25.952h-10.688c-11.392 0-30.88-15.136-40.64-26.080l-124.96-143.2c-0.896-1.024-1.088-1.28-2.016-2.080-1.184-1.248-3.808-4.672-4.736-8.544-0.448-1.952-1.856-7.904 8.736-18.464 11.136-11.104 19.104-13.632 22.496-12.704l64.64 71.936c7.648 8.544 19.776 11.424 30.432 7.296 10.688-4.16 17.728-14.4 17.664-25.856l-0.032-6.912c0.576-164.416 135.040-298.336 299.648-298.336 79.936 0 154.944 31.168 211.168 87.744 56.192 56.512 87.104 131.872 87.072 212.096v193.536l-421.664 359.456-422.688-355.808v-492.096h220.32c15.232 0 27.584-12.352 27.584-27.584 0-15.264-12.352-27.616-27.584-27.616h-247.904c-15.232 0-27.584 12.384-27.584 27.616v532.544c0 8.128 3.552 15.872 9.792 21.12l450.4 379.104c10.304 8.704 25.408 8.64 35.68-0.096l449.152-382.912c6.144-5.248 9.728-12.896 9.728-20.992v-206.24c0.032-94.88-36.608-184.064-103.104-251.040-66.72-67.072-155.616-104-250.368-104z" />
<glyph unicode="&#xe623;" d="M832.224 639.744c-6.592 0-13.184 2.368-18.432 7.168l-121.312 111.168c-11.136 10.176-11.872 27.488-1.696 38.592 10.176 11.136 27.488 11.872 38.592 1.696l121.312-111.168c11.136-10.176 11.872-27.488 1.696-38.592-5.376-5.888-12.768-8.864-20.16-8.864zM168.16-27.904c-6.656 0-13.28 2.4-18.464 7.168l-119.936 109.856c-10.048 9.184-11.808 24.384-4.064 35.616l409.056 594.24c0.704 1.024 1.504 2.016 2.368 2.976l153.952 168.096c25.088 27.424 59.424 43.488 96.64 45.152s72.832-11.296 100.32-36.384l136.064-124.416c56.704-51.84 60.64-140.224 8.8-196.928-25.152-27.488-59.456-43.552-96.672-45.184-37.12-1.664-72.8 11.264-100.288 36.384l-121.024 110.496c-11.168 10.176-11.936 27.424-1.76 38.592 10.176 11.136 27.456 11.936 38.592 1.728l121.056-110.56c16.704-15.296 38.336-23.136 61.024-22.144 22.592 1.024 43.488 10.752 58.752 27.488 31.52 34.496 29.12 88.224-5.376 119.776l-136.064 124.416c-16.704 15.296-38.336 23.136-60.992 22.144-22.624-1.024-43.488-10.784-58.752-27.488l-152.672-166.752-394.496-573.088 85.44-78.24 55.776 43.2-17.888 70.624c-2.432 9.632 0.512 19.808 7.776 26.624 7.232 6.784 17.6 9.12 27.072 6.080l97.888-31.424-23.616 101.28c-2.24 9.568 0.832 19.616 8.064 26.304 7.232 6.656 17.536 8.896 26.88 5.92l97.952-31.456-23.648 101.28c-2.272 9.568 0.832 19.616 8.064 26.304 7.264 6.656 17.504 8.928 26.88 5.92l97.92-31.424-23.648 101.28c-2.272 9.6 0.864 19.616 8.096 26.304s17.504 8.928 26.88 5.952l128.544-41.28 32 29.92c11.008 10.304 28.32 9.696 38.624-1.312 10.304-11.008 9.728-28.32-1.312-38.624l-43.744-40.864c-7.232-6.784-17.568-9.088-27.008-6.080l-97.952 31.456 23.648-101.28c2.208-9.6-0.832-19.616-8.064-26.272-7.232-6.72-17.504-8.928-26.88-5.952l-97.888 31.456 23.648-101.312c2.208-9.6-0.864-19.616-8.096-26.304s-17.504-8.928-26.88-5.92l-97.92 31.424 23.648-101.28c2.272-9.6-0.864-19.616-8.096-26.304-7.2-6.656-17.504-8.928-26.848-5.92l-96.896 31.104 10.208-40.192c2.624-10.528-1.184-21.632-9.76-28.288l-88.128-68.288c-4.96-3.808-10.88-5.696-16.736-5.696z" />
<glyph unicode="&#xe624;" d="M281.632 447.040c-73.12 0-132.576-59.488-132.576-132.576v-188.704c0-73.088 59.456-132.576 132.576-132.576h468.384c73.088 0 132.576 59.488 132.576 132.576v188.704c0 69.824-53.344 128.832-121.472 134.304-15.296 1.248-27.040 13.984-27.040 29.344v183.744c0 126.24-106.016 228.896-236.288 228.896-130.624 0-236.928-103.2-236.928-230.048v-154.784h62.816l0.576 151.968c0 44.736 19.328 87.488 54.4 120.224 33.632 31.392 78.336 49.408 122.656 49.408 44.96 0 87.168-16.96 118.784-47.776 32-31.168 49.664-73.056 49.664-117.92l-0.32-185.344c-0.032-16.256-13.152-29.376-29.44-29.376h-104.736l-0.64-65.216c-0.16-16.16-13.28-29.12-29.408-29.12-34.688 0-62.944-28.224-62.944-62.944 0-34.688 28.224-62.88 62.944-62.88 34.688 0 62.88 28.224 62.88 62.88 0 7.904-0.736 14.144-2.336 19.104-4.928 15.488 3.648 32.064 19.104 36.96 15.52 4.928 32.064-3.648 36.96-19.136 3.424-10.816 5.088-22.912 5.088-36.928 0-67.104-54.624-121.76-121.76-121.76-67.168 0-121.76 54.656-121.76 121.76 0 57.12 39.488 105.12 92.544 118.24l0.672 68.736c0.16 16.16 13.248 29.12 29.408 29.12h104.512l0.256 155.904c0 59.84-48.128 106.784-109.568 106.784-61.824 0-118.176-52.864-118.176-110.912l-0.64-181.376c-0.064-16.192-13.248-29.312-29.44-29.312h-71.392zM749.984-65.728h-468.352c-105.568 0-191.456 85.888-191.456 191.456v188.704c0 77.184 45.888 143.84 111.808 174.080v172.16c0 159.296 132.672 288.928 295.776 288.928 162.752 0 295.168-129.088 295.168-287.776v-158.624c85.184-19.744 148.544-97.888 148.544-188.768v-188.704c0-105.568-85.888-191.456-191.456-191.456z" />
<glyph unicode="&#xe625;" d="M951.136-24.096v0l-903.136 0.608c-7.264 0.032-14.208 2.912-19.328 8.032s-8 12.064-8 19.328l0.672 536.544c0.032 8.256 3.744 16.064 10.176 21.216l451.328 363.872c9.952 8.064 24.192 8.064 34.208 0.096l283.072-226.208v119.584c0 15.104 12.256 27.296 27.296 27.296 15.104 0 27.328-12.224 27.328-27.296v-176.384c0-10.496-6.016-20.064-15.488-24.608-9.44-4.544-20.672-3.264-28.896 3.264l-310.336 248-424.096-341.92-0.64-496.192 848.448-0.544v509.792c0 15.104 12.224 27.328 27.296 27.328 15.104 0 27.296-12.256 27.296-27.328v-537.152c0-7.232-2.848-14.208-8-19.328-5.12-5.12-12.064-8-19.296-8z" />
<glyph unicode="&#xe626;" d="M487.040 495.68v-245.952c0-11.040-6.144-21.12-15.936-26.208-37.696-19.456-61.152-57.6-61.152-99.52 0-61.728 50.24-111.968 111.968-111.968 61.728 0 111.968 50.24 111.968 111.968 0 40.864-22.912 78.72-59.808 98.688-9.504 5.12-15.424 15.104-15.424 25.888v247.072h-71.616zM521.92-46.816c-94.24 0-170.912 76.672-170.912 170.88 0 57.92 29.12 110.976 77.088 142.528v258.528c0 16.288 13.184 29.44 29.472 29.44h101.056v284.736c0 35.808-18.816 48.48-34.976 48.48-18.304 0-36.8-15.008-36.8-48.48v-212.864c0-16.256-13.184-29.44-29.44-29.44-16.288 0-29.472 13.184-29.472 29.44v212.864c0 69.76 49.344 107.424 95.744 107.424 46.656 0 93.888-36.896 93.888-107.424v-574.176c46.816-31.936 75.232-84.544 75.232-141.12 0-94.208-76.672-170.848-170.912-170.848zM934.432 555.712l-63.456 0.032 0.032 63.456c0 16.256-13.184 29.44-29.44 29.472-16.256 0-29.472-13.184-29.472-29.44l-0.032-63.488-63.456 0.064c-16.256 0-29.44-13.184-29.472-29.44 0-16.256 13.184-29.472 29.44-29.472l63.456-0.032-0.032-63.488c0-16.256 13.184-29.44 29.44-29.472 16.256 0 29.472 13.184 29.472 29.44l0.032 63.456 63.456-0.032c16.256 0 29.44 13.184 29.472 29.44s-13.184 29.472-29.44 29.472zM85.6 526.368c0-16.288 13.184-29.472 29.44-29.472l185.856-0.096c16.256 0 29.44 13.184 29.472 29.44 0 16.256-13.184 29.44-29.44 29.44l-185.856 0.096c-16.256 0.032-29.472-13.184-29.472-29.44z" />
<glyph unicode="&#xe627;" d="M1001.664 381.12c-5.248 17.088-23.36 26.752-40.448 21.504l-165.088-50.496-214.368 113.984 180.768 126.528 181.408-31.968c19.744-3.488 38.56 9.696 42.048 29.472 0.384 2.144 0.544 4.224 0.544 6.336 0 17.28-12.384 32.608-29.984 35.68 0 0-59.168 10.432-109.92 19.392l73.728 51.648c16.416 11.52 20.416 34.144 8.928 50.528-11.488 16.448-34.144 20.416-50.528 8.928l-73.408-51.424c8.928 50.656 19.296 109.376 19.296 109.376 0.384 2.144 0.544 4.224 0.544 6.336 0 17.28-12.384 32.608-29.984 35.744-19.744 3.488-38.592-9.696-42.080-29.472l-31.904-180.864-169.984-119.040v206.624l131.040 131.040c14.176 14.208 14.176 37.184 0 51.36-14.176 14.144-37.152 14.144-51.328 0 0 0-43.104-43.136-79.712-79.776v93.312c0 20.064-16.256 36.288-36.288 36.288s-36.288-16.256-36.288-36.288v-91.296c-36.16 36.16-77.728 77.728-77.728 77.728-14.176 14.144-37.152 14.144-51.328 0-14.176-14.176-14.176-37.152 0-51.36l129.056-129.056v-220.992l-211.552 112.512-54.016 176.64c-5.888 19.168-26.176 29.984-45.344 24.128-15.648-4.768-25.696-19.168-25.696-34.688 0-3.52 0.512-7.104 1.6-10.624 0 0 17.696-57.856 32.768-107.232l-64.128 34.112c-17.728 9.408-39.68 2.688-49.12-15.008-9.408-17.696-2.688-39.68 15.008-49.088l63.136-33.6c-49.056-15.008-105.696-32.288-105.696-32.288-15.648-4.8-25.696-19.168-25.696-34.72 0-3.52 0.48-7.072 1.568-10.624 5.888-19.168 26.176-29.952 45.344-24.128l175.104 53.536 211.168-112.256-192.064-134.464-181.696 32.032c-19.744 3.488-38.592-9.696-42.080-29.44-0.384-2.144-0.544-4.256-0.544-6.336 0-17.312 12.384-32.608 29.984-35.712 0 0 59.424-10.432 110.24-19.424l-59.744-41.824c-16.416-11.488-20.416-34.112-8.928-50.528 11.52-16.416 34.144-20.416 50.56-8.928l59.040 41.344c-8.896-50.528-19.2-109.056-19.2-109.056-0.384-2.144-0.576-4.224-0.576-6.336 0-17.28 12.384-32.608 30.016-35.68 19.744-3.488 38.56 9.696 42.080 29.44l31.84 180.544 186.592 130.688v-222.464l-130.656-130.624c-14.176-14.176-14.176-37.184 0-51.36s37.152-14.176 51.328 0c0 0 42.816 42.816 79.328 79.328v-74.688c0-20.064 16.256-36.288 36.288-36.288s36.288 16.256 36.288 36.288v73.472c36.256-36.256 78.112-78.144 78.112-78.144 14.176-14.176 37.184-14.176 51.36 0 14.176 14.144 14.176 37.152 0 51.36l-129.472 129.472v229.888l201.6-107.232 54.816-179.232c5.248-17.088 23.328-26.752 40.448-21.504 13.952 4.256 22.944 17.088 22.944 30.976 0 3.136-0.48 6.336-1.44 9.472 0 0-20.256 66.208-35.872 117.28l76-40.384c17.728-9.376 39.68-2.688 49.12 15.008 9.408 17.696 2.688 39.68-15.008 49.12l-66.752 35.488c48.352 14.784 103.136 31.552 103.136 31.552 13.952 4.256 22.944 17.088 22.944 30.976-0.032 3.104-0.48 6.272-1.44 9.44z" />
<glyph unicode="&#xe628;" d="M973.664-17.44h-885.056c-18.496 0-33.504 15.008-33.504 33.536 0 18.496 15.008 33.504 33.504 33.504h885.056c18.496 0 33.504-15.008 33.504-33.504 0.032-18.528-15.008-33.536-33.504-33.536zM518.624 127.936c-4.928 0-9.92 1.12-14.656 3.424-16.64 8.128-23.552 28.16-15.456 44.832 86.688 177.92 30.848 276.576-28.224 381.056-54.048 95.52-109.92 194.336-42.208 341.216 7.744 16.832 27.648 24.192 44.48 16.416 16.832-7.744 24.192-27.68 16.416-44.48-53.312-115.712-12.256-188.288 39.712-280.128 61.984-109.6 132.256-233.792 30.144-443.424-5.824-11.936-17.76-18.848-30.144-18.848zM759.52 127.936c-4.928 0-9.92 1.12-14.656 3.424-16.672 8.128-23.552 28.192-15.456 44.832 86.72 177.952 30.88 276.576-28.224 381.056-54.080 95.52-109.984 194.272-42.336 341.216 7.744 16.8 27.68 24.16 44.48 16.416 16.832-7.744 24.192-27.648 16.448-44.48-53.28-115.712-12.224-188.288 39.776-280.128 62.016-109.6 132.32-233.792 30.144-443.424-5.824-11.936-17.76-18.848-30.144-18.848zM277.664 127.936c-4.928 0-9.92 1.12-14.656 3.424-16.64 8.128-23.552 28.16-15.456 44.832 86.72 177.984 31.040 276.64-27.904 381.088-53.888 95.52-109.6 194.304-41.952 341.184 7.744 16.8 27.648 24.192 44.48 16.416 16.832-7.744 24.16-27.648 16.416-44.48-53.28-115.712-12.352-188.288 39.456-280.16 61.824-109.6 131.904-233.792 29.792-443.424-5.792-11.936-17.76-18.848-30.144-18.848z" />
<glyph unicode="&#xe629;" d="M976.512 167.488c-4.192 0-8.448 0.96-12.448 2.976-7.168 3.616-177.344 90.72-359.232 266.976-183.456 177.792-249.216 437.728-251.936 448.704-3.68 14.784 5.376 29.76 20.192 33.44 14.816 3.648 29.76-5.408 33.44-20.192 0.832-3.328 65.216-256.064 236.736-422.272 175.936-170.496 344.064-256.512 345.76-257.376 13.6-6.88 19.040-23.52 12.16-37.12-4.864-9.568-14.592-15.136-24.672-15.136zM799.136 558.72c-4.064 0-8.192 0.896-12.096 2.784-13.696 6.688-19.424 23.232-12.736 36.928 31.808 65.344 11.968 100.48-11.008 141.088-22.496 39.776-48.032 84.896-17.632 150.848 6.368 13.856 22.784 19.936 36.64 13.536 13.856-6.368 19.936-22.784 13.536-36.64-18.528-40.288-4.992-64.256 15.52-100.544 25.472-45.024 57.152-101.024 12.576-192.48-4.768-9.792-14.624-15.52-24.864-15.52zM926.048 558.72c-4.064 0-8.192 0.896-12.096 2.784-13.696 6.72-19.424 23.232-12.736 36.96 31.84 65.344 12 100.416-11.008 141.088-22.496 39.776-48.032 84.864-17.664 150.848 6.368 13.856 22.784 19.936 36.64 13.536 13.856-6.368 19.936-22.784 13.536-36.64-18.528-40.288-4.96-64.256 15.552-100.544 25.472-45.024 57.152-101.024 12.576-192.48-4.8-9.792-14.624-15.52-24.864-15.52zM672.256 558.72c-4.064 0-8.192 0.896-12.096 2.784-13.696 6.688-19.424 23.232-12.736 36.928 31.84 65.376 12.032 100.48-10.912 141.152-22.432 39.776-47.872 84.864-17.504 150.816 6.4 13.856 22.784 19.936 36.672 13.536 13.824-6.368 19.904-22.784 13.536-36.64-18.528-40.288-5.024-64.288 15.456-100.544 25.376-45.024 56.992-101.024 12.448-192.48-4.8-9.824-14.656-15.52-24.864-15.52zM562.4 215.488c-3.776 12.384-16.928 19.36-29.344 15.552l-82.976-25.376-102.272 54.4 87.616 61.344 89.472-15.776c12.768-2.24 24.96 6.272 27.2 19.040 0.256 1.408 0.352 2.752 0.352 4.128 0 11.2-8.032 21.12-19.424 23.104 0 0-20.8 3.648-43.232 7.616l27.936 19.552c12.512 8.768 15.52 25.984 6.784 38.496s-25.952 15.52-38.464 6.784l-27.776-19.424c3.936 22.336 7.584 42.976 7.584 42.976 0.256 1.376 0.352 2.752 0.352 4.096 0 11.168-8 21.088-19.392 23.104-12.768 2.272-24.96-6.272-27.2-19.008l-15.744-89.216-79.872-55.968v96.992l64.672 64.704c9.184 9.152 9.184 24.032 0 33.216-9.152 9.152-24.032 9.152-33.216 0 0 0-15.168-15.2-31.456-31.488v35.872c0 15.232-12.384 27.616-27.648 27.616-15.232 0-27.616-12.384-27.616-27.616v-34.784c-15.904 15.904-30.432 30.432-30.432 30.432-9.152 9.152-24.032 9.152-33.216 0-9.152-9.184-9.152-24.032 0-33.216l63.616-63.616v-106.848l-103.136 54.848-26.656 87.168c-3.776 12.416-16.928 19.392-29.312 15.584-10.112-3.072-16.608-12.384-16.608-22.432 0-2.272 0.32-4.576 1.024-6.848 0 0 6.208-20.352 12.928-42.24l-21.92 11.648c-13.472 7.168-30.208 2.016-37.376-11.424-7.168-13.472-2.048-30.208 11.424-37.344l21.376-11.36c-21.6-6.624-41.44-12.672-41.44-12.672-10.112-3.104-16.608-12.384-16.608-22.432 0-2.304 0.32-4.608 1.024-6.912 3.776-12.384 16.928-19.36 29.344-15.584l86.336 26.4 103.136-54.848-93.632-65.568-89.696 15.808c-12.768 2.272-24.928-6.272-27.2-19.040-0.256-1.408-0.352-2.752-0.352-4.128 0-11.2 8-21.088 19.424-23.072 0 0 20.896-3.712 43.424-7.68l-20.448-14.336c-12.512-8.768-15.52-25.952-6.784-38.496 8.736-12.512 25.952-15.52 38.464-6.784l20.064 14.048c-3.936-22.304-7.52-42.784-7.52-42.784-0.256-1.376-0.384-2.752-0.384-4.096 0-11.2 8.032-21.12 19.424-23.104 12.768-2.272 24.96 6.272 27.2 19.040l15.68 89.024 88.8 62.176v-105.536l-64.48-64.48c-9.184-9.152-9.184-24.032 0-33.216 9.152-9.152 24.032-9.152 33.216 0 0 0 15.040 15.072 31.264 31.264v-25.888c0-15.232 12.384-27.616 27.616-27.616 15.264 0 27.648 12.384 27.648 27.616v25.28c15.968-15.968 30.624-30.656 30.624-30.656 9.184-9.152 24.032-9.152 33.216 0 9.152 9.184 9.152 24.032 0 33.216l-63.84 63.84v111.584l95.2-50.624 27.68-90.56c3.776-12.384 16.928-19.36 29.312-15.584 10.112 3.072 16.64 12.384 16.64 22.432 0 2.272-0.32 4.576-1.024 6.848 0 0-6.88 22.496-13.952 45.632l25.664-13.632c13.472-7.168 30.176-2.048 37.344 11.424s2.048 30.176-11.424 37.344l-20.704 11.008c20.224 6.176 38.080 11.616 38.080 11.616 10.112 3.104 16.608 12.384 16.608 22.464 0 2.368-0.32 4.672-1.024 6.976z" />
<glyph unicode="&#xe62a;" d="M990.24 207.872c-12.48 10.432-31.040 8.832-41.504-3.648-86.208-102.944-213.984-173.952-350.528-194.848-133.088-20.384-260.8 8.064-350.464 77.952-88.864 69.312-142.208 171.936-150.176 289.088-8 117.28 29.888 236 106.656 334.304 81.536 104.384 202.336 171.552 331.456 184.224 110.88 10.88 214.88-20.16 292.832-87.392 173.12-149.376 107.2-374.112 24.96-480.672-39.968-51.808-83.424-77.632-105.76-88.448-33.472-16.128-54.24-15.68-59.584-13.44-0.128 1.248-0.16 3.744 0.608 7.552 19.552 96.8 90.528 420.192 91.232 423.488 3.488 15.872-6.56 31.584-22.464 35.104-15.872 3.456-31.584-6.592-35.072-22.464-0.416-1.856-23.68-107.904-47.264-216.768-0.096-0.416-0.224-0.768-0.32-1.216-5.344-24.992-13.952-49.76-25.568-73.728-27.456-56.64-68.544-102.112-115.648-128-43.808-24.096-87.328-27.968-122.528-10.944s-59.072 53.568-67.296 102.848c-8.832 52.992 1.44 113.408 28.896 169.984 27.488 56.64 68.544 102.112 115.68 128 43.808 24.096 87.328 27.968 122.496 10.944 3.008-1.44 5.952-3.072 8.736-4.768 13.888-8.48 32.032-4.128 40.512 9.76 8.48 13.888 4.128 32-9.76 40.48-4.384 2.688-9.024 5.216-13.728 7.52-52.864 25.6-115.584 21.216-176.64-12.32-57.728-31.744-107.552-86.4-140.288-153.92-32.768-67.52-44.832-140.448-33.984-205.376 11.424-68.64 46.848-120.576 99.712-146.176 22.688-10.976 47.232-16.416 72.64-16.416 33.792 0 69.152 9.632 103.968 28.8 25.216 13.856 48.96 32.128 70.4 53.92-0.512-2.464-0.992-4.864-1.44-7.104-6.688-33.152 5.376-60.32 32.32-72.576 58.080-26.464 166.56 28.192 236.896 119.328 57.088 74.016 93.12 173.376 96.384 265.856 2.848 81.312-17.28 198.592-129.472 295.392-90.272 77.888-209.984 113.888-337.088 101.408-145.088-14.24-280.736-89.536-372.16-206.592-85.728-109.76-128-242.752-119.008-374.528 9.152-134.048 70.496-251.776 172.704-331.488 81.024-63.2 188.192-96.864 303.264-96.864 30.368 0 61.28 2.368 92.384 7.104 152.736 23.392 290.080 99.84 386.784 215.264 10.432 12.448 8.8 31.008-3.68 41.44z" />
<glyph unicode="&#xe62b;" d="M234.752 290.080c-28.288 0.64-43.552 15.52-45.792 17.056l-22.432 19.744-99.84 90.848c-10.688 9.152-21.056 17.664-30.72 30.144-12.16 15.936-16.48 35.264-16.576 56.224 0.096 20.576 4.416 39.936 16.576 55.872 9.632 12.448 20 20.96 30.304 29.76l99.168 88.032 21.952 19.296c2.4 1.664 17.6 16.512 45.92 17.184 20 0.384 43.296-10.656 59.84-32.864 10.752-13.888 18.176-29.28 18.24-46.368-0.544-22.080-11.36-37.92-24.704-51.552l279.84-0.032c25.344 0.064 47.904-6.048 64.352-20.768 16.544-14.784 23.104-35.904 22.88-55.456v-7.008c0.192-19.84-6.176-41.088-22.72-56.128-13.824-12.544-32.032-18.912-52.48-20.576-1.664-0.32-3.424-0.48-5.184-0.48h-110.464c-16.992-0.032-24.192-4-27.040-6.688-2.784-2.656-5.184-6.56-5.376-16.928l0.064-7.008c0.16-9.696 2.368-13.248 5.088-15.968 2.944-2.624 10.272-6.592 27.232-6.624h352.288c11.488 0 21.696-7.008 25.664-17.536 4-10.528 0.896-22.336-7.872-29.632-15.648-13.12-30.976-25.92-40.896-34.496-16.864-14.336-19.936-22.496-19.232-23.456 0-1.28 0.48-5.344 7.296-14.208 9.92-12.032 13.408-11.008 15.904-11.456 2.784-0.256 7.84 2.24 9.216 3.424 21.888 19.296 21.92 19.232 21.92 19.232l99.52 88.384c11.104 9.312 17.76 15.168 22.816 21.728 2.528 3.264 5.568 10.528 5.6 23.744-0.032 13.6-3.104 20.896-5.536 23.936-5.088 6.72-11.808 12.512-23.648 22.592l-100.128 91.104-22.080 19.424c-0.48 0.288-1.376 0.864-2.4 1.408-2.176 1.216-4.832 1.952-6.752 1.952-2.528-0.48-5.984 0.576-16-11.52-6.752-8.768-7.232-12.896-7.168-14.048-0.672-1.056 2.336-9.184 19.168-23.584 10.528-9.12 26.464-22.816 42.912-36.8 11.424-9.76 12.576-26.688 2.592-37.856-9.952-11.136-27.296-12.288-38.72-2.528-16.48 14.080-32.48 27.808-43.264 37.184-18.592 16.448-36.896 34.688-37.6 63.584 0 17.12 7.52 32.512 18.272 46.368 16.48 22.24 39.904 33.248 59.808 32.768 28.352-0.544 43.584-15.488 45.76-17.024l22.496-19.744 99.808-90.848c10.688-9.184 21.088-17.632 30.848-30.272 11.424-15.072 15.904-33.312 16.416-53.056l0.096-2.24-0.096-3.456c-0.48-19.616-4.96-37.92-16.512-53.312-9.664-12.384-20.064-20.96-30.368-29.696l-99.072-88.032-22.112-19.488c-2.4-1.568-17.632-16.352-45.856-16.992-20.768 0-43.552 10.976-59.712 32.736-10.88 13.984-18.304 29.472-18.336 46.496 0.544 22.048 11.392 37.92 24.768 51.488h-279.84c-25.28-0.032-47.904 6.048-64.352 20.8-16.544 14.72-23.104 35.808-22.912 55.392v7.008c-0.192 19.872 6.208 41.152 22.784 56.128 16.48 14.976 39.2 21.12 64.48 21.088h103.616c16.992 0.032 24.16 4 27.040 6.72 2.784 2.624 5.184 6.528 5.344 16.864v7.008c-0.224 9.76-2.4 13.376-5.216 16-2.88 2.688-10.24 6.592-27.168 6.656h-352.288c-11.488 0-21.76 7.008-25.792 17.6-3.936 10.56-0.768 22.368 8.032 29.632 15.68 12.992 30.88 25.792 40.864 34.4 16.832 14.336 19.872 22.496 19.168 23.584 0 1.184-0.48 5.344-7.2 14.080-9.952 12.096-13.568 11.104-16 11.552-2.784 0.224-7.712-2.208-9.056-3.328l-22.048-19.36-99.456-88.256c-11.072-9.408-17.76-15.296-22.88-21.952-2.464-3.072-5.504-10.4-5.6-23.616 0.096-13.632 3.168-20.96 5.6-23.968 5.088-6.688 11.808-12.544 23.584-22.592l100.096-91.104 22.112-19.392c0.448-0.32 1.312-0.864 2.368-1.44 2.176-1.152 4.832-1.952 6.752-1.92 2.432 0.384 6.016-0.608 15.968 11.456 6.72 8.704 7.2 12.832 7.2 14.112 0.672 1.056-2.4 9.28-19.2 23.584-10.432 9.12-26.4 22.784-42.784 36.8-11.424 9.728-12.608 26.688-2.624 37.856 10.016 11.168 27.36 12.256 38.752 2.528 16.416-14.048 32.416-27.776 43.136-37.12 18.528-16.416 36.896-34.688 37.536-63.616 0-16.992-7.392-32.48-18.24-46.432-16.256-21.664-38.944-32.704-58.624-32.704h-1.12zM557.28 532.032c2.88 0.992 5.984 1.536 9.216 1.536l-21.472-0.032c3.2 0 7.456-0.544 12.256-1.504z" />
<glyph unicode="&#xe62c;" d="M567.168 393.472c-4.672 0.96-8.864 1.472-11.968 1.472l20.96 0.032c-3.168 0-6.176-0.512-9.024-1.504M1009.728 263.008c-0.48 19.328-4.864 37.152-16.032 51.872-9.536 12.32-19.68 20.608-30.144 29.568l-97.6 88.832-21.984 19.296c-2.144 1.504-17.056 16.064-44.768 16.64-19.456 0.48-42.304-10.304-58.464-32.032-10.528-13.536-17.856-28.576-17.856-45.312 0.704-28.224 18.592-46.080 36.768-62.176 10.528-9.152 26.176-22.592 42.304-36.352 11.168-9.536 28.096-8.384 37.856 2.496 9.76 10.912 8.64 27.456-2.56 36.992-16.064 13.696-31.648 27.072-41.92 36.032-16.48 14.080-19.424 21.984-18.752 23.040-0.032 1.152 0.416 5.184 7.008 13.76 9.76 11.84 13.152 10.816 15.616 11.232 1.888 0 4.48-0.736 6.624-1.888 1.024-0.544 1.888-1.12 2.336-1.408l21.6-19.008 97.92-89.056c11.552-9.856 18.144-15.52 23.136-22.080 2.368-2.944 5.344-10.112 5.408-23.424-0.064-12.96-3.040-20.064-5.504-23.232-4.96-6.432-11.456-12.16-22.304-21.248l-97.312-86.4c0 0-0.032 0.064-21.408-18.784-1.344-1.184-6.304-3.552-9.024-3.328-2.432 0.416-5.824-0.576-15.52 11.2-6.656 8.64-7.104 12.672-7.104 13.856-0.672 0.96 2.304 8.928 18.784 22.976 9.696 8.384 24.672 20.928 40 33.728 8.544 7.104 11.616 18.624 7.712 28.96-3.872 10.304-13.888 17.152-25.12 17.152h-344.416c-16.608 0.032-23.744 3.904-26.656 6.496-2.72 2.656-4.832 6.112-4.992 15.616l-0.032 6.848c0.192 10.144 2.496 13.984 5.248 16.576 2.784 2.56 9.824 6.496 26.432 6.496h107.968c1.728 0 3.424 0.16 5.056 0.48 20 1.664 37.792 7.872 51.328 20.128 16.16 14.688 22.368 35.488 22.208 54.848v6.848c0.192 19.136-6.24 39.808-22.368 54.208-16.096 14.368-38.144 20.352-62.912 20.288l-273.632 0.032c13.088 13.312 23.648 28.8 24.192 50.368-0.064 16.736-7.328 31.776-17.824 45.376-16.16 21.664-38.944 32.48-58.528 32.064-27.68-0.608-42.528-15.136-44.896-16.768l-21.44-18.912-96.928-86.048c-10.080-8.64-20.224-16.96-29.632-29.12-11.872-15.584-16.064-34.528-16.192-54.656 0.128-20.448 4.32-39.36 16.192-54.976 9.472-12.224 19.584-20.512 30.048-29.472l97.6-88.832 21.952-19.296c2.176-1.472 17.088-16.032 44.768-16.672h1.088c19.296 0 41.44 10.816 57.344 31.968 10.592 13.696 17.824 28.8 17.824 45.44-0.608 28.288-18.592 46.144-36.672 62.176-10.496 9.152-26.112 22.56-42.176 36.288-11.168 9.504-28.096 8.448-37.92-2.432-9.76-10.88-8.608-27.488 2.56-37.024 16-13.696 31.648-27.072 41.856-36 16.448-13.92 19.456-21.984 18.752-23.008 0-1.248-0.48-5.28-7.008-13.792-9.696-11.776-13.216-10.816-15.616-11.2-1.888-0.032-4.48 0.736-6.624 1.888-1.024 0.544-1.888 1.088-2.304 1.408l-21.6 18.944-97.888 89.056c-11.52 9.856-18.080 15.552-23.040 22.112-2.368 2.944-5.408 10.144-5.472 23.424 0.096 12.992 3.040 20.128 5.472 23.136 4.992 6.496 11.552 12.224 22.368 21.44l97.216 86.304 21.536 18.912c1.344 1.12 6.144 3.488 8.864 3.264 2.4-0.416 5.92 0.576 15.68-11.296 6.56-8.544 7.008-12.608 7.008-13.76 0.672-1.024-2.272-9.024-18.752-23.040-9.728-8.384-24.608-20.928-39.936-33.632-8.608-7.104-11.68-18.688-7.84-28.96 3.936-10.368 13.984-17.216 25.184-17.216h344.416c16.544-0.032 23.744-3.872 26.56-6.496 2.752-2.56 4.896-6.112 5.088-15.616v-6.848c-0.128-10.080-2.496-13.92-5.216-16.48-2.816-2.656-9.824-6.528-26.432-6.56h-101.28c-24.736 0.032-46.976-5.984-63.072-20.608-16.192-14.624-22.432-35.424-22.272-54.88v-6.848c-0.192-19.136 6.24-39.776 22.4-54.176 16.064-14.432 38.208-20.352 62.912-20.352h273.6c-13.088-13.248-23.68-28.768-24.192-50.336 0.032-16.64 7.296-31.808 17.92-45.472 15.776-21.28 38.080-32 58.368-32 27.584 0.608 42.496 15.072 44.832 16.608l21.632 19.040 96.864 86.080c10.080 8.544 20.224 16.928 29.696 29.024 11.296 15.008 15.68 32.96 16.16 52.128l0.096 3.392-0.096 2.176zM149.6 554.496l383.648 332.064 380.416-335.872c5.312-4.704 11.904-6.976 18.464-6.976 7.712 0 15.424 3.2 20.928 9.44 10.208 11.552 9.088 29.184-2.432 39.392l-398.72 352.032c-10.464 9.248-26.176 9.312-36.736 0.192l-402.112-348.032c-11.648-10.048-12.928-27.68-2.848-39.36s27.744-12.928 39.392-2.848zM925.696 26.56h-754.208v88.224c0 15.424-12.48 27.904-27.904 27.904s-27.904-12.48-27.904-27.904v-116.16c0-15.424 12.48-27.872 27.904-27.872h782.112c15.424 0 27.904 12.48 27.904 27.872-0.032 15.424-12.48 27.904-27.904 27.904z" />
<glyph unicode="&#xe62d;" d="M540.064 544.16c-2.72 0.928-5.632 1.44-8.672 1.44l20.192-0.032c-3.008-0.032-7.008-0.512-11.52-1.408zM510.176 494.272h76.608v-51.872h-76.608v51.872zM628.704 344.672c-0.384 0-0.736 0-1.12 0h-0.288l0.032 51.904 0.928-0.032c6.24-0.096 7.968 1.312 8.224 1.6 0.64 0.64 1.824 3.296 1.824 9.12 0.032 3.456 0.032 11.776 0 17.568v5.152c0 8.896-1.344 11.296-10.976 11.296v51.904c37.6 0 62.88-25.376 62.88-63.168v-5.088c0.032-5.984 0.032-14.528 0-17.856 0-23.776-9.376-38.080-17.248-45.856-7.68-7.616-21.6-16.576-44.224-16.576zM512.224 396.544h74.56v-51.904h-74.56v51.904zM388.992 396.544h80.448v-51.904h-80.448v51.904zM361.824 265.632l-45.024 25.792 3.168 5.92-59.552 54.048c-7.904 7.2-10.624 18.528-6.784 28.512 3.808 9.984 13.408 16.608 24.096 16.672l68.192 0.32 0.256-51.872h-1.44l11.040-10.016c0.288-0.288 0.576-0.544 0.864-0.832 10.528-10.496 23.456-36.704 5.216-68.512zM296.704 221.824c-19.072 0-34.528 9.568-42.4 17.472l-2.624 2.304 34.272 38.944 3.392-2.976c0.992-0.896 0.992-0.736 1.696-1.6 4.672-4.096 8.992-1.536 11.104-0.32l26.176-44.832c-11.168-6.496-21.888-8.992-31.648-8.992zM199.616 356.608l57.824-51.84-34.656-38.656-57.824 51.84 34.656 38.656zM131.456 348.128l-15.040 12.704c-0.32 0.288-0.64 0.544-0.96 0.832-14.208 13.28-22.432 34.464-22.56 58.112-0.128 23.616 8.064 45.088 22.496 58.88 0.096 0.064 0.16 0.16 0.224 0.224 0.32 0.288 7.616 7.104 15.36 13.728l33.76-39.456c-6.368-5.44-12.608-11.2-13.6-12.128-3.84-3.776-6.4-12.16-6.368-20.96 0.032-9.408 2.912-17.152 5.792-20.192l14.368-12.128-33.504-39.584zM296.576 451.2l-35.2 38.144 57.984 53.472c0.256 1.088-0.096 3.264-1.888 6.56l45.408 25.152c17.376-31.392 4.544-57.152-5.76-67.456-0.256-0.224-0.512-0.48-0.768-0.704l-59.808-55.168zM286.464 560.672l-34.368 38.88 2.624 2.304c11.904 11.936 41.088 27.712 74.080 8.48l-26.144-44.832c-6.72 3.936-10.272 0.64-10.912-0.032-0.576-0.64-1.216-1.28-1.856-1.824l-3.392-2.976zM219.456 569.44l33.792-39.392-53.536-45.92-33.792 39.392 53.536 45.92zM277.376 443.040c-7.072 0-14.112 2.848-19.232 8.512-9.632 10.624-8.832 27.040 1.76 36.672l42.72 38.752c10.624 9.632 27.040 8.832 36.672-1.76 9.632-10.624 8.832-27.040-1.792-36.64l-42.72-38.752c-4.992-4.512-11.232-6.72-17.44-6.72zM802.912 317.024c-12.704 0-30.72 4.48-49.888 23.648-16.96 16.96-25.568 34.816-25.536 53.088 0.032 21.216 11.872 34.112 14.24 36.448 0.288 0.32 0.576 0.576 0.864 0.864l60.48 54.848c10.624 9.632 27.040 8.864 36.672-1.76 9.6-10.624 8.832-27.040-1.792-36.672l-58.496-53.056c-0.48-2.080 1.312-8.096 10.272-17.024 8.32-8.32 12.768-8.448 13.184-8.448 1.088 0.032 2.368 0.992 2.976 1.536 1.248 1.856 1.888 2.24 3.84 3.808 24.544 20.096 128.768 113.024 138.304 121.536 8.64 9.376 7.552 33.504 0.16 41.728-10.24 8.992-113.728 100.032-138.336 121.952-1.6 1.408-1.984 1.6-3.040 3.104-0.608 0.576-1.888 1.536-2.976 1.536-0.512 0-4.832-0.16-13.152-8.448-8.928-8.928-10.752-14.944-10.272-17.056l58.496-53.056c7.968-7.2 10.656-18.56 6.784-28.544s-13.504-16.608-24.224-16.608h-311.584c-12.48-1.152-12.48-8.096-12.48-10.752 0-1.6-0.16-3.232-0.448-4.8-0.256-3.104-0.032-12.16 0.256-14.72 0.16-1.056 0.224-2.112 0.224-3.168 0-8.256 0-12.352 14.112-12.352 14.336 0 25.952-11.648 25.952-25.952 0-14.368-11.616-25.984-25.952-25.984-39.712 0-65.472 24.704-66.016 63.040-0.416 5.024-1.12 17.376 0.032 26.112 1.216 42.368 37.664 59.392 62.272 60.48 0.384 0 0.736 0.032 1.12 0.032h245.344l-10.656 9.664c-0.32 0.256-0.608 0.544-0.896 0.864-2.368 2.368-14.24 15.264-14.24 36.448 0 18.272 8.576 36.128 25.536 53.088 20.96 20.96 40.608 24.384 53.376 23.52 20.32-1.312 33.28-13.216 38.368-18.88 27.904-24.832 136.48-120.288 137.568-121.28 0.416-0.384 0.832-0.736 1.216-1.12 28.672-28.672 28.64-87.2-0.128-115.968-0.352-0.32-0.704-0.64-1.056-0.992-4.576-4.064-109.824-97.952-138.944-122.144-5.344-5.792-18.176-17.152-37.952-18.464-1.088-0.096-2.24-0.128-3.456-0.128zM73.92 80.864c-14.336 0-25.952 11.616-25.952 25.952v685.824c0 14.336 11.616 25.952 25.952 25.952s25.952-11.648 25.952-25.952v-685.824c0-14.336-11.616-25.952-25.952-25.952z" />
<glyph unicode="&#xe62e;" d="M554.656 399.616c2.72-0.928 5.632-1.472 8.704-1.472l-20.224 0.064c2.976-0.032 7.008 0.48 11.52 1.408zM507.936 501.376h76.576v-51.936h-76.576v51.936zM467.392 450.496c-37.6 0-62.88 25.408-62.88 63.232v5.056c0 5.984-0.032 14.528 0 17.888 0 23.744 9.408 38.048 17.28 45.824 7.808 7.744 22.016 16.864 45.376 16.576h0.288l-0.032-51.936h-0.928c-6.24 0.128-7.904-1.28-8.224-1.6-0.64-0.608-1.792-3.296-1.792-9.088-0.032-3.488-0.032-11.808-0.032-17.6l0.032-5.152c0-8.864 1.344-11.296 10.912-11.296v-51.936zM507.904 599.136h74.56v-51.936h-74.56v51.936zM625.248 599.136h80.48v-51.936h-80.48v51.936zM748.8 546.848l-0.224 51.936h1.344l-10.976 9.952c-0.32 0.288-0.608 0.576-0.896 0.832-10.496 10.496-23.424 36.704-5.184 68.512l45.056-25.824-3.168-5.888 59.552-54.016c7.936-7.2 10.624-18.528 6.816-28.544-3.84-10.016-13.44-16.64-24.128-16.672l-68.192-0.288zM808.704 663.168l-3.392 2.976c-0.992 0.864-0.992 0.736-1.664 1.568-4.672 4.064-8.992 1.536-11.104 0.32l-26.208 44.864c32.96 19.232 62.144 3.488 74.080-8.448l2.624-2.304-34.368-38.944zM731.776 369.216c-17.376 31.392-4.544 57.152 5.76 67.456 0.224 0.224 0.48 0.448 0.736 0.672l59.808 55.168 35.2-38.176-57.984-53.472c-0.288-1.088 0.096-3.264 1.888-6.528l-45.44-25.12zM797.504 324.384c-9.792 0-20.512 2.496-31.648 9.024l26.208 44.832c6.72-3.936 10.272-0.64 10.88 0.064 0.608 0.64 1.248 1.248 1.888 1.824l3.392 2.976 34.336-38.976-2.624-2.304c-7.904-7.904-23.328-17.472-42.432-17.472zM871.936 677.568l57.824-51.808-34.688-38.688-57.824 51.808 34.688 38.688zM963.712 451.104l-33.792 39.456c6.368 5.44 12.576 11.168 13.6 12.128 3.872 3.776 6.4 12.16 6.368 20.96-0.032 9.408-2.912 17.152-5.792 20.192l-14.368 12.128 33.504 39.68 15.040-12.704c0.32-0.288 0.672-0.576 0.992-0.864 14.208-13.28 22.432-34.464 22.56-58.112 0.128-23.648-8.064-45.12-22.496-58.912-0.064-0.064-0.16-0.16-0.224-0.224-0.32-0.256-7.616-7.104-15.36-13.728zM895.040 459.68l33.792-39.424-53.536-45.92-33.792 39.424 53.536 45.92zM774.624 410.016c-7.072 0-14.112 2.848-19.232 8.512-9.632 10.624-8.832 27.072 1.76 36.704l42.72 38.752c10.624 9.632 27.040 8.832 36.704-1.76 9.632-10.624 8.832-27.040-1.792-36.704l-42.72-38.72c-4.96-4.512-11.232-6.752-17.44-6.752zM315.52 303.904c0.64-0.704 1.312-1.344 2.016-1.952-0.416 0.448-0.832 0.864-1.312 1.312l-0.704 0.64zM290.816 227.616c-1.216 0-2.368 0.032-3.456 0.096-20.288 1.344-33.28 13.216-38.368 18.88-27.904 24.832-136.448 120.288-137.568 121.28-0.416 0.384-0.832 0.736-1.216 1.152-28.672 28.672-28.608 87.232 0.128 116 0.352 0.32 0.704 0.672 1.056 0.992 4.576 4.064 109.824 97.952 138.944 122.144 5.312 5.792 18.176 17.152 37.984 18.464 12.736 0.864 32.384-2.56 53.376-23.52 24.032-24.032 26.944-45.952 25.088-60.128-2.144-16.704-11.104-26.752-13.792-29.472-0.288-0.288-0.576-0.576-0.896-0.864l-60.48-54.848c-10.624-9.664-27.040-8.832-36.704 1.792-9.632 10.624-8.832 27.040 1.792 36.704l58.496 53.056c0.48 2.112-1.312 8.096-10.24 16.992-6.912 6.912-11.616 8.512-13.28 8.448-0.928-0.032-2.592-1.088-2.592-1.12-1.216-1.568-2.592-2.976-4.128-4.256-24.512-20.128-128.736-112.992-138.304-121.536-8.448-9.152-7.36-33.664-0.16-41.728 10.272-9.024 113.696-100 138.304-121.92 1.6-1.408 1.984-1.6 3.040-3.136 0.608-0.544 1.888-1.504 2.976-1.536 0.512-0.096 4.832 0.16 13.152 8.448 8.704 8.736 10.56 14.656 10.304 16.8-0.032 0.096-0.032 0.16-0.032 0.256l-58.496 53.056c-7.936 7.2-10.624 18.56-6.784 28.608 3.872 10.016 13.504 16.608 24.224 16.608h311.584c12.448 1.12 12.448 8.064 12.448 10.72 0 1.6 0.16 3.232 0.448 4.8 0.288 3.104 0.032 12.192-0.256 14.784-0.096 0.992-0.192 2.176-0.192 3.168 0 8.224 0 12.352-14.080 12.352-14.368 0-25.984 11.616-25.984 25.984 0 14.336 11.616 25.984 25.984 25.984 39.712 0 65.504-24.736 66.016-63.104 0.384-4.992 1.088-17.344-0.032-26.080-1.216-42.4-37.664-59.392-62.272-60.48-0.384-0.032-0.736-0.032-1.12-0.032h-245.28l10.624-9.664c0.288-0.288 0.576-0.544 0.864-0.864 2.688-2.688 11.648-12.736 13.824-29.44 1.824-14.176-1.056-36.096-25.088-60.128-19.168-19.2-37.184-23.712-49.92-23.712zM64.608 80.832c-14.368 0-25.984 11.648-25.984 25.984v685.824c0 14.368 11.616 25.984 25.984 25.984s25.984-11.648 25.984-25.984v-685.824c-0.032-14.336-11.616-25.984-25.984-25.984z" />
</font>
</defs>
</svg>
